<?xml version="1.0"?>
<svg xmlns:rdf="http://www.w3.org/1999/02/22-rdf-syntax-ns#" xmlns="http://www.w3.org/2000/svg" xmlns:cc="http://web.resource.org/cc/" xmlns:xlink="http://www.w3.org/1999/xlink" xmlns:dc="http://purl.org/dc/elements/1.1/" id="Layer_1" xml:space="preserve" overflow="visible" height="671.15" viewBox="0 0 458.339 671.148" width="458.34" version="1.1" enable-background="new 0 0 458.339 671.148">
<g clip-rule="evenodd" fill-rule="evenodd">
	<path d="m255.82 85.443c-1.607 3.311-3.449 1.12-7.199 0.48-4.207-0.718-16.37-4.58-17.76-5.28-0.358-0.181-0.421-0.937-0.48-1.44 8.1 0.558 17.04 4.392 25.44 6.24z" fill="#E7A614"/>
	<path d="m131.5 85.923c0.511-1.089 3.018-0.183 4.32-0.48 0.415 0.948 2.208 4.815 0 5.28-0.493-1.587-0.493-3.667-1.44-4.8-1.467-0.347-1.75 0.491-2.88 0.48v-0.48z" fill="#E7A614"/>
	<path d="m279.82 86.403h9.601c-2.09 0.798-7.5 0.798-9.6 0z" fill="#E7A614"/>
	<path d="m259.18 87.363c0.553 8.838 6.327 14.41 2.88 22.08-1.462-0.778-2.07-2.41-3.84-2.88-1.812-0.212-2.254 0.946-3.36 1.44-3.02-3.38-7.568-5.232-14.399-4.8 3.079-2.521 7.118-4.082 8.64-8.16 6.1 0.175 4.32-7.52 10.08-7.677z" fill="#E7A614"/>
	<path d="m250.54 88.323c-0.072 0.888-1.626 0.295-1.92 0.96-0.165 1.261 4.258 1.826 3.359-0.48 1.947 2.788-2.882 5.173-4.8 2.88v-2.88c0.96-0.449 2.29-1.563 3.36-0.48z" fill="#E7A614"/>
	<path d="m292.78 89.763h-0.479c-1.458 0.592 0.521 1.651 0 2.88-0.775 0.135-0.826-0.454-1.44-0.48 0.005-1.275-0.181-2.741 0.48-3.36 0.613 0.026 0.664 0.615 1.439 0.48v0.48z" fill="#E7A614"/>
	<path d="m104.62 94.563c-2.209-0.358-3.116 2.293-4.8 0.96 3.878-5.315 16.069-6.724 20.64-2.4-0.245 1.516-2.192 1.328-3.36 1.92-2.38-1.585-9.68-2.399-12.48-0.48z" fill="#130F06"/>
	<path d="m136.78 100.8c3.56-2.766 0.235-8.095-4.8-6.72 5.584-2.987 9.691 3.16 5.76 7.68-0.42-0.21-0.86-0.42-0.96-0.96z" fill="#E7A614"/>
	<path d="m246.7 94.563c-2.464 9.535-17.497 6.503-23.04 12.96 4.367 2.846 12.693-3.204 18.72-2.88 3.715 0.199 9.58 1.494 10.08 4.8 0.749 4.959-7.744 7.479-13.92 7.68-6.069 0.197-12.876-3.832-15.36 0.96 2.244 4.02 7.292 2.108 11.04 2.88 11.034 2.272 15.468 14.268 12 27.36-6.791 1.978-7.851-5.236-10.56-8.64-1.738-2.184-4.778-2.844-6.721-4.8-2.505-2.521-3.371-8.049-8.16-6.24-2.206 5.719 3.971 6.875 6.24 11.04 1.615 2.965 2.785 8.926 3.36 12.96 2.192 15.386-0.232 36.565-7.2 46.08-5.674-12.705-9.46-29.537-9.12-45.6 0.108-5.08 1.5-10.787-3.36-12.96-4.119 2.757-2.08 7.649-1.92 12.96 0.101 3.366 1.808 5.777 2.4 9.12 2.796 15.784-3.643 34.363-4.8 48.96-1.887 0.354-3.479 1.001-5.28 1.44-1.468-1.412-2.188-3.572-5.28-3.36 0.229-4.148-0.169-10.431-0.48-17.28-0.283-6.225 1.257-13.012 0.96-18.24-0.105-1.847-1.707-3.961-1.92-5.76-0.636-5.363 3.112-13.76-0.96-14.4-3.467-0.545-4.774 12.451-1.44 13.92 0.378 1.978-2.298 0.902-1.92 2.88-0.285 4.429 1.771 7.594 2.4 11.52 1.244 7.758-0.96 15.814 0 24 0.211 1.798 0.42 2.587 1.92 3.84-6.175 2.77-10.704 7.86-19.68 5.28-2.377-10.89 4.594-26.07-1.92-32.16-4.124 0.037-2.601 5.719-2.88 9.6 4.383 5.431 2.448 14.206 1.44 22.56-4.157 2.243-10.107 2.693-16.32 2.88 1.768-15.04 3.844-34.438-1.92-46.56-2.007 4.526 2.005 11.028 0.96 17.76-1.211-2.628-2.167-5.513-5.28-6.24-0.427-11.441 4.961-19.479 5.76-28.8 0.531-6.194-2.186-12.719 0-20.16 8.382-2.03 17.824-7.54 25.92-6.72 1.804 2.604 4.271 8.031 8.16 10.08 7.311-4.234-1.139-13.009-7.2-12.96 9.877-8.092 22.661-14.996 36-20.16 8.96-3.46 18.11-13.573 29.28-9.597zm-47.04 38.397c-0.134-5.499-5.865-9.471-12.96-9.6 3.49 2.93 10.2 4.6 12.96 9.6zm-16.8 6.72c-0.207-3.154-0.99-5.73-3.36-6.72 1.2 2.17 1.88 4.84 3.36 6.72z" fill="#E7A614"/>
	<path d="m299.98 98.403c21.894 4.667 45.209 12.071 67.681 17.76-6.233 2.969-14.953 2.849-19.2-1.92-1.931-0.33-2.74 0.46-4.32 0.48-14.12-6.03-32.87-7.44-44.16-16.317z" fill="#E7A614"/>
	<path d="m114.7 98.883c-1.447 1.015-2.273-0.135-4.32 0.48 0.43-1.179 3.36-1.301 4.32-0.48z" fill="#E7A614"/>
	<path d="m100.78 101.76c-0.087 1.047 0.393 1.527 1.44 1.44-1.028 1.185-2.864 1.044-2.88-0.96 0.372-0.107 0.947-0.013 0.96-0.48h0.48z" fill="#E7A614"/>
	<path d="m102.7 103.2c3.819-1.73 6.887 1.427 10.56 1.44 0.079 1.358-2.959-0.399-2.88 0.96-1.253-1.147-3.611-1.189-5.28-1.92 0.08-1.04-1.7-0.22-2.4-0.48z" fill="#E7A614"/>
	<path d="m110.38 105.6c3.234 1.559 5.524-0.914 7.2-2.4 1.34 1.685-1.602 3.18-2.88 3.84-4.885 2.587-7.394-3.326-11.52-1.44-1.093 0.667-1.859 1.66-2.88 2.4 0.136 3.064 1.975 4.425 1.44 8.16-0.02 1.58-0.811 2.39-0.48 4.32-2.069 5.492 1.562 9.271 2.4 13.44-6.965-4.004-2.299-18.531-5.76-26.88v-0.48c4.026 0.666 3.634-3.086 7.2-2.88 1.67 0.73 4.03 0.78 5.28 1.92z" fill="#130F06"/>
	<path d="m351.34 103.68c2.186-1.21 3.512 2.556 4.32 4.32-1.881-0.307-5.734 0.47-5.761-2.88 1.75 0.78 2.66-0.14 1.44-1.44z" fill="#E7A614"/>
	<path d="m257.26 108.48c2-0.24 2.304 1.216 2.4 2.88-0.691-0.269-1.172-0.749-1.44-1.44-2.098 0.414 0.258 2.499-0.96 3.36-1.222-0.059-1.861-0.698-1.92-1.92-0.33-1.93 2.02-1.18 1.92-2.88z" fill="#E7A614"/>
	<path d="m429.1 131.04c0.006 0.634 0.842 0.438 0.96 0.96-1.854 5.666-2.917 12.123-9.12 13.44-0.06-1.98 0.835-3.006 0.48-5.28-0.985-4.071-6.269-3.919-10.561-6.24-5.044-2.727-8.286-7.168-13.439-7.2-4.14-0.025-6.75 2.972-10.561 4.8 3.771-11.292 15.958-21.033 30.721-15.36-1.251 4.089-3.758 6.458-3.841 10.56 1.56 6.76 10.79 8.11 15.36 4.32z" fill="#E7A614"/>
	<path d="m101.74 116.16h0.48c1.532 7.588 3.747 14.494 6.72 20.64-0.292 0.027-0.568 0.072-0.48 0.48-4.273-3.726-3.507-12.493-7.2-16.8-0.33-1.93 0.46-2.74 0.48-4.32z" fill="#E7A614"/>
	<path d="m125.74 123.36c-1.529-3.111-6.999-2.281-8.16-5.76 0.091-0.389 0.481-0.479 0.48-0.96 0.54 3.64 11.67 3.95 7.68 6.72z" fill="#E7A614"/>
	<path d="m186.7 123.36c7.095 0.129 12.826 4.101 12.96 9.6-2.76-5-9.47-6.67-12.96-9.6z" fill="#130F06"/>
	<path d="m112.3 132c2.132 0.567 8.181 4.56 10.56 0 1.134 1.011-0.975 2.838-1.92 3.36-3.84 1.67-7.24-1-8.64-3.36z" fill="#130F06"/>
	<path d="m131.5 132.96c1.207 0.929-0.564 2.924-0.48 4.32-1.41-1.14 0.58-2.9 0.48-4.32z" fill="#E7A614"/>
	<path d="m179.5 132.96c2.371 0.989 3.154 3.566 3.36 6.72-1.48-1.88-2.16-4.55-3.36-6.72z" fill="#130F06"/>
	<path d="m104.14 133.92c0.633 0.991 2.625 3.103 1.44 4.32-0.36-1.49-2.35-3.05-1.44-4.32z" fill="#130F06"/>
	<path d="m388.3 140.16c1.971 0.229 0.919 4.836 0 5.28-1.48-1.25-0.69-3.69 0-5.28z" fill="#E7A614"/>
	<path d="m246.7 150.24c2.136 0.441 2.93 5.548 0 5.76 0.686-0.641 0.686-2.72 0-3.36-1.909 0.01-1.419 2.42-1.439 4.32-1.971-0.109-1.819-2.34-1.92-4.32 1.21-0.71 2.65-1.19 3.36-2.4z" fill="#E7A614"/>
	<path d="m347.02 155.52c1.293 0.032 2.308 1.097 1.44 1.92-1.26 0.15-1.57-0.66-1.44-1.92z" fill="#130F06"/>
	<path d="m46.063 180.48c-11.254 10.666-19.721 24.119-31.68 34.08 0.063 1.183 0.072 2.312-0.48 2.88 5.812-21.389 12.852-45.708 28.32-59.04 2.731 5.91 2.277 15 3.84 22.08z" fill="#E7A614"/>
	<path d="m454.54 164.64c-1.182 0.544-2.659 2.381-3.841 1.44-0.361-1.802 1.834-1.046 1.921-2.4 0.021-0.821-0.357-1.243-0.96-1.44-1.634 0.126-1.358 2.162-2.4 2.88-5.64-4.02 6.69-7.74 5.28-0.48z" fill="#E7A614"/>
	<path d="m365.74 169.44c1.351 0.09 2.046 0.835 1.921 2.4-1.77 0.34-2.12-0.76-1.92-2.4z" fill="#130F06"/>
	<path d="m99.343 197.76c4.662 4.458 7.491 10.749 8.64 18.72-4.473-1.309-13.445-6.941-13.44-11.52 0.006-3.19 4.059-3.56 4.803-7.2z" fill="#E7A614"/>
	<path d="m34.543 202.08c0.65-0.083 0.622 2.778 1.44 0.96 4.529 18.199 14.797 30.943 25.44 43.68 2.602 3.114 6.388 5.472 8.64 8.64 6.54 9.202 8.367 21.532 8.16 37.44-11.146-0.066-23.279-3.272-33.12-6.24 1.497-28.78-12.684-56.55-10.56-84.48z" fill="#E7A614"/>
	<path d="m224.14 205.92c-0.775 0.135-0.826-0.454-1.44-0.48-0.35-1.31 0.954-0.966 0.96-1.92 1.22 0.05 1.14 1.79 0.48 2.4z" fill="#130F06"/>
	<path d="m191.98 236.16c0.816-0.176 0.906 0.375 0.96 0.96-1.569 8.99-2.686 18.434-7.2 24.48-6.181-4.379-6.673-14.447-9.12-22.56 6.21-1.24 13.4 5.56 15.36-2.88z" fill="#E7A614"/>
	<path d="m168.46 249.12c3.017 3.386-0.882 10.468-3.36 12.96 0.014-4.174 0.298-8.618-0.96-11.52 1.92-0.01 3.38-0.46 4.32-1.44z" fill="#E7A614"/>
	<path d="m28.303 261.12c-0.29-1.789 1.227-3.036 0-4.32-1.194-0.074-1.486 0.754-2.4 0.96 0.498 1.11 0.977 3.682 0.48 4.32-7.633-1.282-3.131-13.77 4.32-10.08 3.194 1.58 4.001 7.95-2.4 9.12z" fill="#E7A614"/>
	<path d="m187.66 264c0.506 1.277 0.903 3.687-0.48 4.32-1.734 0.455-0.669-1.891-0.96-2.88h-1.44c-1.423 0.697 0.632 1.872 0 3.36-1.145-0.615-2.601-0.919-2.88-2.4 0.34-2.42 3.32-3.53 5.76-2.4z" fill="#E7A614"/>
	<path d="m165.1 264.48c1.816-0.316 0.9 3.363 0.48 3.84-1.08-0.36-0.18-2.69-0.48-3.84z" fill="#E7A614"/>
	<path d="m157.9 283.2c2.013 0.067 1.96 2.199 1.92 4.32-1.058-0.699-2.732-3.64-2.88 0-1.44-1.32 0.36-3.46 0.96-4.32z" fill="#E7A614"/>
	<path d="m148.78 307.68c1.719-0.279 1.459 1.421 1.44 2.88-2.137-1.706-2.443-0.402-1.44 1.92-1.088-0.512-1.744-1.456-1.92-2.88 0.85-0.43 1.49-1.07 1.92-1.92z" fill="#E7A614"/>
	<path d="m126.7 342.24c1.705 0.055 1.932 1.589 1.92 3.36-1.266 0.146-1.238-1.002-1.44-1.92-1.567 0.693-1.208 1.072-0.96 2.88-1.433-0.328-1.609-1.911-1.44-3.84 0.76-0.04 1.83 0.23 1.92-0.48z" fill="#E7A614"/>
	<path d="m87.343 348.48c1.583 0.018 1.835 1.365 1.92 2.88-1.075-0.578-2.84-1.996-2.4 0.96-1.291 0.331-0.928-0.992-1.44-1.439-0.202-1.64 1.438-1.44 1.92-2.4z" fill="#E7A614"/>
	<path d="m14.383 356.64c1.219 2.671-1.79 5.241-1.44 8.64-1.673-3.12 1.18-5.85 1.44-8.64z" fill="#E7A614"/>
	<path d="m157.42 378.72c1.826 0.428 4.192 2.827 2.88 4.8-2.299 0.186 0.825-2.312-1.44-2.4-0.775-0.135-0.827 0.454-1.44 0.48-0.695 1.814 1.319 0.921 0.96 2.399-2.67 1.89-3.34-4.65-0.96-5.28z" fill="#E7A614"/>
	<path d="m147.34 381.12c3.087 0.695 2.817 2.847 2.4 6.24-1.882 0.442-0.348-2.532-1.44-2.88-0.861-0.062-1.013 0.588-1.92 0.479-0.514 1.794 1.192 1.368 0.96 2.881-3.56-0.44-2.6-6.01 0-6.72z" fill="#E7A614"/>
	<path d="m131.02 384.48c0.983 1.482 3.407 5.002 0.48 6.24-0.005-1.275 0.182-2.741-0.48-3.36-0.999 0.281-1.551 1.009-2.4 1.44-0.51 1.79 1.8 0.76 1.44 2.399-4.22-0.27-3.09-7.01 0.96-6.72z" fill="#E7A614"/>
	<path d="m18.703 385.44v4.32c-1.889 0.769-0.167-2.073-1.44-1.92-2.062-0.165-1.299 1.748-0.96 2.88-1.547-0.533-1.519-2.642-1.44-4.801 0.998-0.5 2.554-1.71 3.84-0.48z" fill="#E7A614"/>
	<path d="m107.98 394.56c0.739-1.366 1.446-3.286 0-4.32-1.407 0.032-1.783 1.098-2.4 1.92-0.51 1.79 1.8 0.76 1.44 2.4-2.13 0.37-1.932-1.588-2.88-2.4 1.12-10.79 12.64-0.36 3.84 2.4z" fill="#E7A614"/>
	<path d="m85.903 389.76c1.198 2.244 2.231 5.879-0.96 6.72 0.304-1.794 0.756-2.749-0.96-3.36-2.081-0.32-1.292 2.228-1.44 3.84-5.021-1.58-1.087-10.99 3.36-7.2z" fill="#E7A614"/>
	<path d="m56.623 396.96c-0.159-1.759 0.533-2.667 0.96-3.84-2.911-1.826-3.213 1.458-2.4 3.84-4.484-1.41-1.77-9.487 2.88-7.199 1.654 2.26 1.818 6.37-1.44 7.2z" fill="#E7A614"/>
	<path d="m35.503 393.12c0.232 1.833-0.136 3.064-0.96 3.84-0.597-1.683-0.079-4.482-2.88-3.359-0.573 2.072 1.573 2.69 0.48 3.84-4.832-2.6-0.424-9.06 3.36-4.32z" fill="#E7A614"/>
	<path d="m123.82 467.04c3.205 1.918 7.716 6.682 11.04 10.08-4.38-2.66-7.83-6.24-11.04-10.08z" fill="#130F06"/>
	<path d="m155.5 480.96c-0.166-2.893 1.464-8.131 3.36-10.56-0.4 4.24-2.1 7.18-3.36 10.56z" fill="#130F06"/>
	<path d="m154.54 484.8c1.309-3.652 2.772-7.148 4.8-10.08-0.7 4.26-2.22 7.7-4.8 10.08z" fill="#130F06"/>
	<path d="m160.78 477.6c-1.527 3.434-3.113 6.808-5.76 9.12 1.64-3.32 2.97-6.95 5.76-9.12z" fill="#130F06"/>
	<path d="m135.34 484.32c-2.098-1.742-4.064-3.616-5.28-6.24 2.266 1.415 4.118 3.242 5.76 5.28 1.952-0.646 0.103-1.227 0-2.4 2.826 0.694 4.209 2.831 6.72 3.841-1.691 1.031-3.402-2.024-5.28-2.4 0.419 2.62 3.174 2.906 4.8 4.32-4.547 2.992-8.673-2.784-12-5.28 1.81-0.98 2.85 2.9 5.28 2.88z" fill="#130F06"/>
	<path d="m134.86 492.48c0.907 2.458 4.912 5.964 8.16 7.68-5.325-0.917-9.894-6.744-12-12.479 4.055 4.425 8.668 8.291 13.92 11.52-3.73 0.05-7.17-4.34-10.08-6.72z" fill="#130F06"/>
	<path d="m150.7 490.56c0.726 0.883 1.646-0.174 3.36-0.48-0.975 0.785-1.328 2.192-2.88 2.4 0.225-1.975-1.207 0.377-1.92-0.96 1.013-1.707 2.454-2.986 4.8-3.36-0.93 0.99-2.26 1.58-3.36 2.4z" fill="#130F06"/>
	<path d="m161.74 489.12c1.967 2.379-3.447 5.445-4.32 8.16-1.73-2.29 4.05-4.74 4.32-8.16z" fill="#130F06"/>
	<path d="m131.98 492.96c2.756 4.444 7.857 6.544 11.52 10.08-2.157-0.715-5.751-2.639-8.16-4.8-1.54-1.39-2.77-3.37-3.36-5.28z" fill="#130F06"/>
	<path d="m80.623 502.08c-1.192-1.688-0.785-2.979-2.4-4.8 2.312-1.49 3.688 2.79 2.4 4.8z" fill="#130F06"/>
	<path d="m147.82 498.24c0.708-1.058 9.229-1.236 5.76-0.479-1.59-0.02-3.94 1.21-5.76 0.48z" fill="#130F06"/>
	<path d="m39.343 497.76c1.511 1.411 1.325 7.121-0.96 7.68 0.312-1.752-0.324-2.557-0.96-3.36-0.26-1.699 1.7-1.18 1.44-2.88-2.618-1.58-3.482 3.552-1.92 5.28-3.562 0.48-1.753-7.74 2.4-6.72z" fill="#E7A614"/>
	<path d="m71.983 498.72v6.72c-1.709-1.848-0.196-4.577-1.92-5.76-0.775-0.136-0.826 0.453-1.44 0.479 0.456 1.944 1.524 3.276 1.44 5.76-1.751 0.312-2.557-0.323-3.36-0.96-0.35-1.31 0.954-0.966 0.96-1.92-0.861-0.061-1.012 0.588-1.92 0.48-0.507-3.311 2.287-3.361 1.92-5.28 1.798-0.35 2.683-0.27 4.32 0.48z" fill="#E7A614"/>
	<path d="m133.42 498.24c2.154 2.646 5.79 3.81 7.68 6.72-2.96-1.83-6.68-2.91-7.68-6.72z" fill="#130F06"/>
	<path d="m52.303 500.64c0.185 2.281-1.016 3.462 0 5.279-11.023 5.48-8.763-12.06 0-5.28zm-2.4 5.76c-1.714-2.578 0.556-2.591 0.48-5.76-0.954-0.007-0.61-1.31-1.92-0.96-1.429 1.24-1.85 7.28 1.44 6.72z" fill="#E7A614"/>
	<path d="m59.983 502.08c-1.281-1.756-3.596-0.515-4.32 0.96 1.836 2.099 0.472 1.835 1.44 4.801-5.416-1.66-1.99-12.279 3.84-8.641 0.893 1.69-0.364 1.58-0.96 2.88z" fill="#E7A614"/>
	<path d="m48.463 499.68c1.31-0.35 0.966 0.953 1.92 0.96 0.076 3.169-2.194 3.182-0.48 5.76-3.29 0.56-2.869-5.48-1.44-6.72z" fill="#130F06"/>
	<path d="m156.94 509.28c-1.306 1.414-3.965 1.475-5.76 2.4-0.59-1.41 3.92-1.82 5.76-2.4z" fill="#130F06"/>
	<path d="m46.063 587.04c-17.6 4.633-17.264 39.893-9.12 55.2 1.603 3.012 5.146 6.421 7.2 9.12 4.677 6.146 4.307 11.325 10.08 10.56-3.3-4.06-4.938-9.782-8.64-13.439 1.057-4.544 4.445-6.755 6.24-10.561 1.956 2.54-0.696 4.808 0.48 7.2 5.167-6.026 6.615-13.693 12.96-18.239 6.509-4.665 14.736-7.049 18.24-14.881v-3.359c-1.59 0.649-1.109 3.371-2.4 4.319 0.22-2.792-1.426-7.358-0.96-10.079 3.649 0.35 5.299 2.7 7.2 4.8-0.364 16.436-17.11 16.49-24.96 25.439 6.552-2.567 12.645-5.595 19.2-8.16 4.387 4.328 2.524 11.914-0.96 15.841-8.377 7.11-12.696 18.772-24 22.56-1.925 0.645-3.521-0.605-5.28 0.96-2.633-1.527-3.688-4.632-5.76-6.72-0.712 1.573 1.36 3.919 2.4 5.28-2.455 0.685-3.075-4.598-4.32-6.721-1.905 2.027 1.896 5.901 2.88 8.16-4.815 0.176-2.812-6.468-5.76-8.16-0.744 2.176 1.735 4.874 1.92 7.681-3.359-1.281-2.308-6.973-4.32-9.601-1.122 2.574 1.143 5.888 1.44 8.641-2.279-1.562-2.605-5.075-3.36-8.16-1.672 2.807 0.631 5.758 1.44 7.68-3.714-1.246-4.612-5.309-4.32-10.56-2.474 3.662 0.014 10.495 3.84 11.04-5.396 1.71-6.115-5.402-7.2-9.601-1.453 3.542 1.45 6.863 2.4 9.601-3.455 0.094-3.384-3.336-4.32-5.761-1.432 0.008 0.677 3.558-1.44 2.88 0.993-5.282 1.282-11.177-0.48-17.76 1.979 2.341 1.276 7.364 3.84 9.12-3.095-8.831-6.143-16.955-5.76-26.88 0.612-15.891 9.583-28.982 17.28-37.92 1.93-0.33 2.74 0.46 4.32 0.48zm-7.68 66.24c-1.987-5.054-3.038-11.043-4.8-16.32 0.183 4.98 2.145 12.23 4.8 16.32zm-6.24-1.92c-1.14-2.38-1.152-5.888-3.36-7.2 1.297 2.23 1.047 6 3.36 7.2zm8.16 4.32c-0.878-3.603-1.143-7.817-3.36-10.08 0.974 3.51 1.672 7.29 3.36 10.08zm2.88-0.48v-2.399c-3.083 0.203-1.497-4.264-3.36-5.28-0.432 2.32 0.974 6.62 3.36 7.68z" fill="#E7A614"/>
	<path d="m47.983 589.92c1.467 1.254 3.521 1.92 4.8 3.36 0.546 3.392-0.198 7.593-3.84 8.16-1.418-1.888 0.249-4.009 0.48-5.76-0.091-0.389-0.482-0.479-0.48-0.96-1.66-0.381-2.026 0.533-2.88 0.96 0.528 1.59 1.648 4.477 0.96 5.76-5.5-0.569-4.638-10.262 0.96-10.08v-1.44z" fill="#E7A614"/>
	<path d="m56.623 612.48c1.184 3.206-1.719 5.817-1.92 9.6-0.293 5.526 2.676 11.824-0.48 16.801-0.85-8.48-5.927-21.2 2.4-26.4z" fill="#E7A614"/>
	<path d="m33.583 636.96c1.763 5.277 2.813 11.267 4.8 16.32-2.655-4.09-4.617-11.34-4.8-16.32z" fill="#130F06"/>
	<path d="m28.783 644.16c2.208 1.312 2.22 4.82 3.36 7.2-2.313-1.2-2.063-4.97-3.36-7.2z" fill="#130F06"/>
	<path d="m36.943 645.6c2.218 2.263 2.482 6.478 3.36 10.08-1.688-2.79-2.386-6.57-3.36-10.08z" fill="#130F06"/>
	<path d="m39.823 647.52c1.863 1.017 0.276 5.483 3.36 5.28v2.399c-2.386-1.06-3.792-5.36-3.36-7.68z" fill="#130F06"/>
	<path d="m105.1 435.84c-2.009-2.151-3.513-4.808-3.84-8.641 1.64 2.53 2.49 5.83 3.84 8.64z" fill="#F2D2AE"/>
	<path d="m130.06 516c-0.479-7.467-0.92-14.721-1.92-19.68 2.37 4.84 1.94 12.46 1.92 19.68z" fill="#F2D2AE"/>
	<path d="m185.74 657.12c2.25 2.23 3.118 5.843 5.28 8.16-2.48-1.99-4.16-4.8-5.28-8.16z" fill="#F2D2AE"/>
	<path d="m437.26 142.08c1.527 0.712 4.477 0.003 5.76 0.96-2.088 0.008-4.318 0.159-5.76-0.48v-0.48z" fill="#F2D2AE"/>
	<path d="m118.06 12.963c8.902-3.358 17.432-12.703 27.36-12.96 5.437-0.141 14.799 4.493 17.28 10.08 1.237 2.786-0.163 5.677 0.48 8.64 0.372 1.716 2.599 2.755 2.88 5.76 0.693 7.41-8.299 12.856-13.92 8.16-5.137-4.292-1.604-12.591 4.32-14.4 0.098-3.792-1.404-9.571-6.24-10.08-6.487-0.683-15.417 10.223-15.84 17.76-0.495 8.819 5.734 17.123 2.4 24.96 8.597 0.266 24.687-3.964 31.2 0 1.405 0.855 1.96 3.369 3.36 5.28 3.037 4.146 7.568 7.871 10.08 13.44 2.405 5.332 5.979 13.065 5.76 20.64-0.175 6.029-4.235 10.226-4.32 15.36 0.791 1.929 2.775 2.664 3.84 4.32 0.283 10.261-16.205 12.746-16.8 3.36-0.263-4.147 2.785-4.903 4.8-7.68 1.231-9.63-1.135-21.519-12.48-17.28h-7.2c-2.096 0.336-2.704-0.816-4.8-0.48 2.641 12.125 9.941 29.167 5.28 43.2 4.716-0.248 8.805-5.273 15.84-4.8 1.866-0.854 3.448-1.992 5.76-2.4 9.12-5.243 18.018-12.368 28.32-17.28 4.913-2.343 11.008-3.505 16.32-6.24 7.08-3.646 11.47-9.053 21.6-9.12 1.539-0.701 1.386-3.094 2.88-3.84-5.666-2.814-12.668-4.292-18.72-6.72 0.285-1.795 1.678-2.482 2.4-3.84 8.85 2.507 19.115 4.575 28.799 7.2 2.16 0.585 3.724 1.965 6.24 1.92 1.957-0.035 3.315-1.5 5.28-1.92 4.598-0.982 17.329-1.283 23.04-0.48 7.918 1.113 10.334 9.08 15.36 14.88 13.076 2.62 25.31 8.588 38.88 9.12 0.267-5.667 7.17-8.652 9.12-2.4 3.782-0.963 6.922-3.669 11.52-2.4-1.143-3.337-3.882-5.078-4.32-9.12-2.516 0.116-4.421-0.378-5.76-1.44-1.871-4.714 2.027-7.353 4.32-7.2 3.768 0.251 7.006 9.84 13.92 8.64 1.076-2.853-3.988-3.531-3.84-7.2 0.127-3.146 3.107-5.148 7.2-2.88 0.645 1.834 1.111 2.582 0 4.32 0.847 3.773 5.986 3.424 9.119 5.28 5.059 2.996 11.244 11.332 11.521 20.16 6.619-2.438 12.607 1.017 19.2 1.44 5.271-5.966 5.29-14.298-0.48-20.16-3.431-0.725-7.401-2.508-7.68-7.68 1.518-1.842 3.203-3.517 7.2-2.88 4.847 10.569 19.313 16.452 17.279 31.68-0.41 3.07-2.986 4.954-2.399 9.6 1.136 1.104 6.24 0.8 6.24 0.96 1.974 0.39 2.717 0.804 4.8 2.4 2.979 2.189 6.802 5.434 8.64 10.08 0.392 0.99 0.048 2.429 0.48 3.36 0.987 2.126 3.668 3.727 4.319 5.76 1.229 3.833-0.318 8.533-2.399 12 0.304 1.616 1.378 2.461 0.96 4.8-3.489 10.013-15.967-2.52-6.24-6.24 2.261-7.345-1.372-13.338-7.2-15.36-1.283-0.957-4.232-0.248-5.76-0.96-3.734-1.363-4.886 4.647-8.16 0.48 1.811 4.303 4.911 10.2 2.88 16.8-1.91 6.209-8.762 6.749-14.399 9.12 3.297 11.337-10.854 11.047-9.601 2.4 0.624-4.303 9.569-7.514 10.08-13.44 0.539-6.256-5.65-5.846-8.64-9.12-2.977 2.934-9.54 6.101-14.4 2.88-2.518-1.402-2.42-5.831 0.48-6.72 1.507 0.227 1.268-1.292 2.399-1.44-0.747-1.652-3.771-1.029-2.88-4.32-1.249 0.358-2.887 1.772-4.32 0.48-0.159 1.919 0.856 2.665 0.48 4.8-0.796 1.444-1.378 3.102-2.88 3.84 0.068 13.188-15.427 10.813-21.12 18.24 1.196 0.883 3.465 0.695 3.84 2.4 0.524 4.204-2.035 5.324-4.8 6.24-2.46-0.1-3.685-1.435-4.8-2.88v-1.44c1.154-1.51 2.45-5.674 0-6.72-0.525-3.011-0.152-4.053 0.96-6.24-6.536-1.979-10.718 1.912-16.8 1.92-1.626-2.2-0.804-5.776 1.439-6.72 1.752-0.312 2.557 0.323 3.36 0.96 3.424 0.218 5.623-4.933 7.68-7.68 0.386-0.254 0.779-0.5 1.44-0.48-5.29-4.524-12.281 0.404-17.28 1.92-0.014-0.467-0.588-0.373-0.96-0.48-2.93-1.675-1.894-6.195 0.479-7.68 7.11 1.549 9.048-6.621 15.841-8.16h0.479c0.013-0.467 0.588-0.373 0.96-0.48-1.331-2.029-3.988-2.732-6.24-3.84-3.094-1.756-3.353-5.312-8.159-4.32-1.432-1.091-2.992-4.548-0.96-6.24-1.784-0.296-3.017-1.144-4.801-1.44-3.162-0.517-5.187-2.173-8.64-2.4-4.572-2.234-9.298-2.48-14.88-2.88-5.8-5.406-10.097 1.54-16.32 2.4-1.664 0.256-4.553-0.713-4.8 0.96-5.828 1.38-13.153-0.242-17.28 1.92-1.861-0.869-4.378-3.607-6.24-2.88-7.641-1.574-11.23 5.475-16.8 1.92-4.52 2.84-8.891 5.829-16.319 5.76 9.623 3.565 14.955 16.908 10.56 28.8 3.826 3.847 2.498 11.401-5.28 10.08-1.029-1.371-2.381-2.419-1.92-5.28 0.649-0.472 0.96-1.281 1.44-1.92-6.676-1.644-7.242-9.398-12.48-12.48-0.698 0.213 0.048 0.422 0 0.96 5.505 19.078 5.042 43.103-3.84 60 1.672 1.219 3.254 3.959 1.92 6.72 10.322-1.755 18.475-2.882 29.28-4.32-0.746 10.874-15.582 9.403-24.48 12 0.272 4.459 5.624 5.123 5.761 9.6 0.086 2.838-3.97 9.486-6.721 11.52-5.497 4.065-14.537 3.96-21.12 5.28-0.999-1.239-0.41-3.964 0.96-4.32-1.221-1.067-3.486-1.83-1.92-4.32-4.055 1.864-10.406 1.441-13.92 1.44-1.095 0.666-0.179 3.341-0.48 4.8-1.496 8.584-2.861 17.299-6.72 23.52-0.591 1.592 2.516 3.099 1.44 6.72-2.979 3.561-9.142 3.294-10.56-1.44-0.354-2.721 4.137-3.93 0.96-5.28-1.948-3.172-3.085-7.154-4.32-11.04-2.939 0.74-4.729 2.63-4.8 6.24-2.4 4.125-3.281 6.868-2.88 12-1.091 0.989-1.839 2.321-4.32 1.92v0.96c0.34 1.78-0.82 2.06-0.48 3.84 0.564 3.772-3.581 5.368-3.36 7.2v0.48c0.389 0.091 0.479 0.482 0.96 0.48-0.061 0.861 0.587 1.013 0.48 1.92 1.035 4.322-3.879 5.305-6.24 3.36-0.403 0.557-0.633 1.287-0.48 2.4 0.271 2.19-0.851 2.989-0.48 5.28-1.041-0.081-0.217 1.702-0.48 2.4-0.861 2.659-1.917 5.122-3.84 6.72 0.269 0.691 0.749 1.171 1.44 1.44 1.206 1.802 0.185 4.786-0.96 5.76-1.15 0.29-2.19 0.69-3.84 0.48 2.849 8.031 4.146 17.613 6.24 26.4 0.729 5.786-0.258 13.211 1.92 16.319 1.93 3.351 3.803 6.758 4.8 11.04-0.49 2.482-0.007 2.953 0 5.76 0.498 2.069-1.96 4.194 0 4.801 1.659 0.9 2.579 2.54 3.36 4.319-0.519 1.562-1.418 2.742-2.4 3.84-2.028-0.107-3.1 0.74-4.8 0.961 3.405 4.595 2.505 13.495 4.32 19.68-0.159 4.004 0.722 11.114 1.44 15.84v17.76c-3.744 30.939 6.726 55.567 13.44 80.641 6.796 25.378 7.879 52.258 13.44 77.76 4.592 5.488 12.638 7.521 13.44 16.8 1.326 2.514 0.843 6.837 1.92 9.6v0.48c-2.651 6.564-0.6 13.956 2.4 18.72 0.815 2.865 3.324 4.036 5.76 5.28v0.479c1.585 0.354 5.053 1.322 6.24 0.48 3.878-0.055 7.366 2.163 10.56 1.44 5.706-1.292 15.28-20.185 16.8-26.4 0.333-1.361-0.257-1.986 0-2.88 0.611-1.79 0.993-5.826 0.48-7.2 0.769-9.357-2.717-15.349-12.96-14.88 2.26 7.095-2.354 15.102-10.08 15.36-4.86-1.7-6.97-6.15-6.72-12.96 8.221-4.107 19.629-10.47 27.84-4.801 5.157 3.562 6.249 10.379 10.56 15.36 0.433 1.808 0.85 3.631 1.44 5.28v1.439c0.432 8.287-0.794 12.891-3.36 18.721-2.931 7.321-7.872 15.149-10.08 21.6-1.165 0.914-3.146 1.013-3.359 2.88-0.316 0.645-1.026 0.894-1.92 0.96-7.421 2.979-13.218 7.582-24.48 6.72-8.518-0.762-16.884-1.676-22.08-5.76-2.162-2.317-3.03-5.93-5.28-8.16-1.25-1.31-2.992-2.128-4.8-2.88-2.455-3.055-2.43 2.009-3.84 2.88-4.508-1.092-8.223-2.978-12.48-4.319v-4.32c-7.417-7.324-4.031-19.404 0.96-27.36 0.651-0.148 0.398-1.201 0.48-1.92-2.005 0.405-2.267-0.933-3.84-0.96-10.029-4.733-4.381-16.422 0.48-22.56-1.906-14.946-12.561-23.678-18.24-35.521-0.755-1.574-0.721-3.667-1.44-5.279-2.732-6.134-6.287-10.492-8.16-17.28-1.749-6.337-3.818-13.082-4.8-21.601 0.022-7.222 0.444-14.844-1.92-19.68-4.071-23.77-13.133-42.547-23.04-60.479-1.349-2.812-2.203-6.117-3.84-8.641-0.266-0.854-0.247-1.993-0.96-2.399-2.672-9.648-7.068-17.572-9.6-27.36 0.347-1.467-0.491-1.749-0.48-2.88-0.994-1.246-0.583-3.896-1.92-4.8-1.466 25.619-3.925 58.441-12.96 79.68 0.196 1.156-0.877 1.043-0.48 2.4-0.799 3.366-0.799 10.073 0 13.439v6.24c0.385 1.665-0.715 1.845-0.48 3.36 1.312 0.572 5.942-1.699 7.68 0.479 1.756 1.604 3.047 6.915 0.48 8.64-1.824 0.416-2.311 2.169-4.8 1.92 2.04 6.92 3.836 14.084 3.84 23.04-1.129 13.017-3.133 24.673-3.84 36.96-2.398 11.935 0.789 24.972 1.44 35.521 14.16-2.447 11.75 17.534 5.76 22.56 5.396 7.153-2.06 13.306-3.36 18.721-0.374 1.559 0.519 3.419 0 4.8-1.001 2.665-3.862 4.368-6.24 4.8-0.347-1.467 0.491-1.749 0.48-2.88-5.733 6.811-14.021 17.392-27.84 18.24-9.933 0.609-25.115-1.16-24.96-11.521 2.236-2.604 2.721-9.394 0.48-12.479-3.371-16.262-1.564-27.911 4.8-40.8 4.017-8.137 7.825-15.525 15.84-18.24 2.926 2.514 6.011 4.869 9.6 6.72-4.28-19.24-13.462-37.737-15.36-60.96-0.312-2.408 0.629-6.069-0.48-7.68-0.519-5.959 0.825-10.055 1.44-14.88-3.738 0.339-9.004-3.4-6.72-9.12 2.244-1.68 4.635-2.662 7.2-2.88 0.049-4.854-2.143-11.615-2.4-17.761v-15.359c-0.062-4.259-1.53-7.11-1.92-11.04-1.286-2.395-1.406-5.954-2.88-8.16-5.514-15.126-8.217-33.062-11.52-50.4v-1.439c-0.906-1.184-2.176 1.312-3.36 1.439h-0.48c-1.24-1.319-3.665-1.455-4.8-2.88-1.528-2.956 0.573-5.175 2.4-6.24-7.121-7.943-3.846-20.963-0.96-31.199 2.739-9.716 5-19.521 9.12-28.8 4.153-9.354 10.469-16.731 14.88-23.04-1.617-6.319 3.409-11.362 4.32-17.28 2.237-14.539-4.792-29.151-6.72-42.24-2.612 1.548-2.719 5.601-4.8 7.68 4.502 3.12 5.312 9.519 0.96 13.44h-1.92c-3.969 1.265-7.948 1.355-9.6-3.84v-0.96c-0.471-3.671 1.686-4.715 2.88-6.72 2.019 0.098 2.016-1.824 3.84-1.92 2.814-9.201 2.614-22.547 4.32-34.08v-12.48c-1.048-0.703-2.528 2.254-3.36 3.36-3.034 7.526-6.266 14.854-9.12 22.56-1.227 3.953-2.228 7.706-1.44 12 5.159 4.857-0.174 13.274-5.76 13.92-8.313 0.961-11.863-9.513-4.32-13.92 1.157 0.196 1.043-0.877 2.4-0.48 0.639-1.441 0.488-3.672 0.48-5.76-0.306-2.594 0.534-4.783 0-6.24 1.114-2.566 0.165-7.196 0.48-10.56 7.187-24.653 13.266-50.414 32.16-63.36-3.721-15.606 3.004-27.379 6.24-41.28 2.042-8.772 3.557-18.51 7.2-24.48 2.633-4.313 7.459-6.64 8.16-11.52-3.602 0.07-7.588-2.733-12.96-2.4-4.642-3.136-9.65-5.2-15.84-7.68-10.361 5.959-18.316 14.324-23.52 25.44 5.349 5.682 1.393 12.517-4.8 14.4-8.752-0.747-10.015-14.009-0.96-15.36 0.998-6.921 3.884-13.538 7.2-19.68 2.872-5.321 5.895-12.799 10.56-16.32 4.224-3.188 17.302-8.252 23.04-9.6 3.331-0.782 7.54-0.96 10.56-0.96 8.416 0 16.51 3.662 26.4 2.4h7.2c1.764 0.156 2.656 1.184 4.32 1.44 0.938-11.916 9.574-19.711 15.36-28.32 2.6-2.197 5-4.597 7.2-7.197zm-14.88 135.84c1.358-1.03-0.7-1.192 0-2.88-2.536-0.185-4.462-0.978-6.72-1.44 4.681-8.21 10.35 5.345 16.32 1.44-10.702-2.972-18.835-10.474-19.2-22.56-0.197-6.51 1.842-14.464 0.96-21.6-0.595-4.817-3.825-9.005-2.4-12.96 7.493-10.459 20.062-2.6 33.12-4.32 4.089-0.539 6.818-2.438 11.04-1.92 1.272 4.809 5.236 9.204 5.28 13.92 0.02 2.163-1.771 4.029-1.92 6.24-0.208 3.109 1.824 5.324 0.96 8.64-3.324 4.516-7.911 7.77-7.2 16.32-5.502 2.107-5.447 9.603-8.16 14.4-1.185 2.093-3.614 2.764-3.84 4.8 2.871 0.193 4.95-5.844 5.28-2.4 0.684-1.986 5.239-4.304 3.36-5.76-1.11 1.145-3.403 3.618-4.32 3.36 3.626-2.962 3.804-11.838 8.16-12.48 0.692 13.943 11.495 23.48 12.48 36.96 0.43 5.889-0.382 13.192-0.48 19.2-1.478 0.358-0.923-1.317-2.4-0.96-3.778 2.831-3.487 9.69 1.92 10.56 0.798-2.174-0.449-3.745 0.48-5.28 0.614-0.657 2.266-0.657 2.88 0-0.056 1.926-2.556 3.215-1.44 4.8 4.484 0.433 6.202-9.933 0-10.56-2.364-11.752 3.263-19.441 4.32-29.76 0.36-3.515-0.487-7.218-0.48-11.04 0.02-10.613 5.432-21.098 2.88-31.2-0.366-1.451-1.548-2.646-1.92-3.84-0.815-2.619-0.509-4.962-0.96-7.68-0.832-5.009-2.8-7.553-4.8-11.04 0.639-0.071 1.448 1.952 1.92 0.48-2.411-1.914-4.751-6.442-7.68-6.24 2.197 3.083 3.866 6.694 6.72 9.12-5.598-0.643-5.052-7.428-8.64-10.08 0.565-0.075 1.362 0.083 1.44-0.48-2.024-1.016-4.676-1.404-6.72-2.4 0.416-4.391-6.184-10.031-5.28-17.76 0.44-3.763 5.016-9.074 5.76-14.4 1.469-10.51-4.08-20.311-1.92-27.84 2.328-8.114 12.351-13.959 20.16-14.4 4.744 2.345 8.117 6.797 6.72 13.92-5.758 0.216-10.234 11.207-1.92 12v-2.4c-0.418-1.419-0.381 1.451-1.92 0.48 0.183-1.951 3.84-4.271 5.28-1.92-0.094 1.507-1.899 1.301-1.44 3.36 3.912-0.248 5.053-3.266 4.8-7.68-0.647-1.113-2.027-1.494-2.4-2.88-0.689-4.224 0.293-8.419-1.92-11.521-1.932-2.707-8.933-6.354-11.52-6.72-6.264-0.887-11.036 3.093-15.84 5.76-9.471 5.257-15.885 9.665-22.08 17.76-3.415 4.462-7.109 9.685-8.64 12.48-1.431 2.611-3.316 8.857-2.88 11.04 1.13 5.661 9.01 7.293 9.12 13.92-2.932 1.388-4.142 4.498-9.12 3.84-6.154 3.447-6.725 12.476-12.96 15.84v2.4c-2.577 1.583-3.884 4.437-6.24 6.24-6.263 13.528-20.038 20.716-26.4 34.08-0.872 1.832-0.051 4.346-2.88 5.28 2.891-12.367 12.41-19.4 20.16-28.32 5.13-5.904 9.071-12.66 13.92-18.72-3.854-3.506-9.024-5.696-14.88-7.2-12.404 11.565-16.777 29.188-20.64 48.96-1.248 6.386-4.554 10.611-3.84 18.24 1.484 15.846 5.703 31.14 3.36 46.56-5.001 0.568-6.631 9.66-0.96 10.56 0.282-2.552-1.447-4.536 1.44-4.8 1.094-0.134 1.805 0.116 1.92 0.96 1.731 1.972-1.913 1.641-1.44 3.84 4.139-0.181 4.408-4.232 4.8-8.16-0.333-2.068-2.754-2.045-3.36-3.84-0.595-7.512 3.505-11.563 5.28-17.76 1.116-3.896 1.229-8.941 1.44-12.96 0.346-6.582 1.314-10.052 4.32-14.4 4.402-6.368 9.153-12.507 11.04-19.68 0.347-1.467-0.491-1.749-0.48-2.88 5.703-6.778 1.685-23.275 9.12-28.32-2.491 3.272-3.442 10.634-2.88 15.36 0.982-2.378 0.323-6.396 1.44-8.64 1.057 6.69-1.154 14.182-2.88 19.68 2.71 8.49 11.067 13.892 12.96 21.6-4.688-6.512-10.221-12.179-13.92-19.68-0.353 1.887-1.001 3.479-1.44 5.28 8.315 5.605 10.565 17.275 22.56 19.2 1.854 1.667 4.14 2.9 6.24 4.32 6.742 0.363 13.048 0.094 17.28-3.84-2.941 0.258-5.752 0.647-6.72 2.88-2.16 0.18-8.18-0.65-10.56-0.48zm-29.277-21.12c-0.461 2.739-1.993 4.407-1.44 8.16 5.073 0.528 8.196 3.004 8.16 8.64-5.422 0.622-7.198-2.402-9.12-5.28 3.332-0.601 4.471 3.515 6.72 2.4-2.226-1.294-4.19-2.85-6.72-3.84-0.57 1.509-1.62 2.54-1.92 4.32-4.409 3.838-8.856 6.695-9.6 13.92-0.512 4.972 1.205 10.978-1.44 15.84 4.709-1.371 6.543-5.617 10.56-7.68 2.728 1.608-0.533 3.817-0.96 5.28 0.178 19.182 11.092 27.627 24 34.08 2.455-7.786 6.477-14.003 9.6-21.12 0.088 12.406 6.364 20.545 8.64 30.72 0.649 2.9 0.434 5.98 2.4 8.64 3.176-3.688 6.2 1.851 9.6 0.48 2.471-13.065 7.714-25.863 8.64-38.88 0.824 0.616 0.964 1.916 1.92 2.4 1.997 15.443 14.988 19.892 19.2 33.12-0.073-9.097 2.662-19.637 1.44-27.36-6.581 16.018-23.729-4.962-8.64-9.12-2.873-5.494-0.593-15.639-2.4-21.6-2.565-8.463-8.143-13.48-10.56-21.6-2.804 3.677-6.297 8.953-12 8.16-3.965 3.8-11.355 5.561-16.8 4.32-1.85-0.421-3.1-2.386-5.28-3.36-1.899-0.848-4.569-0.67-6.24-1.44-7.087-3.267-10.621-12.316-15.36-15.84 1.304-0.299 2.248 2.17 2.88 0.96-2.112-1.08-2.766-3.63-5.277-4.32zm156.48-48.477c0.059 0.503 0.122 1.26 0.48 1.44 1.39 0.7 13.553 4.562 17.76 5.28 3.75 0.64 5.592 2.831 7.199-0.48-8.4-1.848-17.34-5.682-25.44-6.24zm129.6 11.04c0.266 2.707 1.958 1.338 4.32 1.44 3.905 6.322 6.376 13.279 14.399 15.36 3.295 0.854 7.364-0.542 9.12 3.36 0.228 1.508-0.599 1.961-1.439 2.4-9.771-2.768-18.99-12.329-30.24-5.28 3.152 1.888 5.875 1.314 9.12 2.88 3.197 1.543 5.04 5.605 8.16 6.72 4.384 1.566 9.152-0.673 9.6 4.32-5.191 0.842-7.389-2.488-12.479-2.88-4.836-0.372-8.886 2.853-13.44 2.88-3.083 0.019-5.372-2.206-8.16-2.4 0.071-1.191 0.09-2.33-0.96-2.4-1.155 1.277-2.551-0.664-3.359 0.96v2.4c1.474 1.832 3.764-0.004 4.8 0.48 5.893 7.302 18.461 12.721 29.279 7.2 0.007 0.954 1.311 0.61 0.961 1.92-3.946 6.039-12.833 1.238-18.721 1.92-7.188 0.832-11.037 7.69-15.359 11.52-1.309-0.452-0.912-2.608-3.36-1.92-1.259 0.846-1.259 3.473 0 4.32 4.272-0.251 5.258-2.909 8.64-3.84 4.332-1.192 7.746 1.508 12.48 1.92 6.46 0.562 10.057-3.049 15.84-4.8 0.206 0.914 1.034 1.206 0.96 2.4-4.163 2.789-10.984 5.238-17.28 4.32-5.292 2.3-7.335 13.083-14.88 8.64-1.226 0.871-2.426 2.052-1.439 3.84 4.52-0.587 8.228-3.277 13.439-2.88 1.419 0.108 2.841 1.006 4.32 0.96 7.499-0.233 10.471-6.804 15.84-9.12-0.336-2.416 0.996-3.164 3.36-2.88-0.021 0.661 0.226 1.054 0.479 1.44-4.295 7.865-15.05 9.27-21.12 15.36 1.554 3.692 3.453 7.793 0.48 11.04 2.926 1.923 6.719-0.003 5.76-2.88-0.193-1.407-2.816-0.384-3.36-1.44-0.916-1.917 1.126-4.489 1.921-6.24 10.11-2.562 20.549-6.15 18.239-19.68-6.843-11.245 5.026-22.185 12.48-26.88 1.293-14.567-12.565-17.722-20.16-24.96 0.435-2.134 0.462-5.606-2.88-5.28-2.74 3.787 3.545 4.904 3.84 8.64 5.405 4.515 13.354 6.486 15.36 14.4-4.538-0.158-5.171-4.095-8.16-6.72-5.644-4.956-14.754-3.546-19.681-9.6-1.463-0.396-2.443-0.057-2.88-0.48 0.279-1.878-0.413-2.787-0.96-3.84-2.227-0.146-3.318 0.842-3.359 2.88 1.403 0.102 1.558-2.708 2.399-0.48-0.43 1.619-1.07 0.059-1.92 0.963zm-236.16-2.88c-7.809 0.213-16.43-4.539-23.04-0.96-3.043 0.637-4.891 2.469-7.2 3.84 1.096 5.625 3.772 9.668 3.36 16.8v3.84c-2.436 12.116 1.119 21.72 7.2 27.84 0.027 0.293 0.072 0.568 0.48 0.48 2.132 4.488 10.763 5.742 15.84 4.32 3.713-0.927 3.133-6.147 3.84-10.08 0.426-0.854 1.34-1.22 0.96-2.88 2.304-1.856 2.982-5.338 5.28-7.2-0.182 2.538-1.315 4.125-2.4 5.76 3.08-0.288 3.447-5.823 2.88-8.16-2.467 2.013-3.783 5.177-5.28 8.16-1.348 1.052-2.233 2.567-4.32 2.88-10.181 0.26-12.747-7.093-16.32-13.44 1.833-1.237 3.519 1.083 4.8 1.92 3.967 3.535 11.022 7.763 15.84 2.88 3.985-2.772-7.144-3.083-7.68-6.72 0.001 0.481-0.389 0.571-0.48 0.96-1.831 0.409-3.053 1.427-4.8 1.92-3.574-0.056-6.324-3.76-8.64-0.96-0.405 2.165 1.124 2.396 1.44 3.84 0.945 4.818 3.367 10.709 3.84 14.4h-0.48c-2.973-6.146-5.188-13.052-6.72-20.64 0.332-0.948 1.28-1.279 2.4-1.44 5.32 4.744 12.326 0.528 17.28-0.48-0.522 0.882-2.651 1.197-1.44 2.4 2.559 1.761 6.127 2.513 8.64 4.32 0.115-0.685 0.791-0.81 0.96-1.44 4.998-9.19-6.95-18.676-1.44-27.36 1.674-1.019 4.708-2.79 7.2-1.44 2.208-0.465 0.415-4.332 0-5.28-1.303 0.297-3.81-0.609-4.32 0.48-2.47 0.566-5.14 0.938-7.68 1.443zm156-0.96c-7.217-1.947-11.364 2.063-17.279 2.88 0.063 5.949 4.691 9.583 2.88 15.84 3.488-0.991 7.326-1.633 12-1.439 3.285-1.359 6.586-5.248 9.6-5.28 0.355 1.635-1.769 0.791-1.92 1.92 4.525 1.44 9.903 3.589 15.84 2.88 0.206-2.454-4.016-4.618-6.24-6.24-0.648-0.151-0.916-0.683-1.92-0.48-2.176-1.184-3.857-2.862-6.72-3.36-2.796 0.238-1.467-0.66-0.96-1.92-0.718-0.082-1.771 0.172-1.92-0.48 0.92-1 1.84-2 3.36-2.4 1.711 1.009 1.374 4.066 4.319 3.84 0.614 0.026 0.665 0.615 1.44 0.48 0.521-1.229-1.458-2.289 0-2.88h0.479c1.449 1.186 3.951 2.528 2.4 5.28 2.494-0.123 6.33 1.776 7.68 0.48 0.635 0.005 0.439 0.841 0.96 0.96-1.618-4.781-5.509-7.291-9.6-9.6-1.501-1.332-2.381-0.433-4.8-0.48-3.2 0.003-6.4 0.003-9.6 0.003zm-30.72 8.64c-1.521 4.078-5.561 5.639-8.64 8.16 6.831-0.432 11.38 1.42 14.399 4.8 1.106-0.494 1.548-1.652 3.36-1.44 1.77 0.47 2.378 2.102 3.84 2.88 3.447-7.67-2.327-13.242-2.88-22.08-5.76 0.16-3.98 7.855-10.08 7.683zm-1.92-6.24v2.88c1.918 2.293 6.747-0.092 4.8-2.88 0.898 2.306-3.524 1.741-3.359 0.48 0.294-0.665 1.848-0.072 1.92-0.96-1.07-1.083-2.4 0.031-3.36 0.48zm-115.2 5.28c-1.127 1.112-2.907 1.573-2.88 3.84 3.094-0.882 7.572-0.641 7.68 2.88 0.102 0.539 0.533 0.748 0.96 0.96 3.93-4.517-0.17-10.664-5.76-7.677zm85.44 10.077c-13.339 5.164-26.123 12.068-36 20.16 6.061-0.049 14.511 8.726 7.2 12.96-3.89-2.049-6.356-7.476-8.16-10.08-8.096-0.819-17.538 4.69-25.92 6.72-2.186 7.441 0.531 13.966 0 20.16-0.799 9.321-6.187 17.358-5.76 28.8 3.112 0.728 4.068 3.612 5.28 6.24 1.045-6.732-2.967-13.234-0.96-17.76 5.764 12.123 3.688 31.521 1.92 46.56 6.213-0.187 12.164-0.637 16.32-2.88 1.008-8.354 2.943-17.129-1.44-22.56 0.279-3.881-1.244-9.563 2.88-9.6 6.514 6.09-0.457 21.271 1.92 32.16 8.976 2.58 13.505-2.51 19.68-5.28-1.5-1.252-1.709-2.042-1.92-3.84-0.96-8.186 1.244-16.242 0-24-0.629-3.926-2.685-7.091-2.4-11.52-0.378-1.978 2.298-0.902 1.92-2.88-3.334-1.469-2.026-14.465 1.44-13.92 4.072 0.64 0.324 9.037 0.96 14.4 0.213 1.798 1.814 3.913 1.92 5.76 0.297 5.229-1.243 12.016-0.96 18.24 0.311 6.849 0.709 13.132 0.48 17.28 3.092-0.212 3.812 1.948 5.28 3.36 1.801-0.439 3.393-1.087 5.28-1.44 1.157-14.597 7.596-33.176 4.8-48.96-0.592-3.343-2.299-5.753-2.4-9.12-0.16-5.312-2.199-10.203 1.92-12.96 4.86 2.174 3.468 7.881 3.36 12.96-0.34 16.063 3.446 32.895 9.12 45.6 6.968-9.515 9.393-30.693 7.2-46.08-0.575-4.035-1.746-9.996-3.36-12.96-2.269-4.165-8.445-5.321-6.24-11.04 4.789-1.81 5.655 3.718 8.16 6.24 1.943 1.956 4.982 2.616 6.721 4.8 2.709 3.404 3.769 10.618 10.56 8.64 3.468-13.092-0.966-25.087-12-27.36-3.748-0.772-8.796 1.14-11.04-2.88 2.484-4.792 9.291-0.763 15.36-0.96 6.176-0.201 14.669-2.721 13.92-7.68-0.5-3.306-6.365-4.601-10.08-4.8-6.027-0.324-14.354 5.726-18.72 2.88 5.543-6.457 20.576-3.425 23.04-12.96-11.17-3.973-20.32 6.14-29.28 9.6zm126.72 10.56c1.58-0.02 2.39-0.81 4.32-0.48 4.247 4.769 12.967 4.889 19.2 1.92-22.472-5.688-45.787-13.093-67.681-17.76 11.29 8.88 30.04 10.29 44.16 16.32zm-208.32-0.96h0.48c3.237-1.673 2.911-11.234-0.48-11.04 0.671 0.703-2.323 1.813-4.32 1.44 1.319 2.811 4.05-0.555 5.76-0.479-0.115 0.685-0.791 0.81-0.96 1.439-1.357 0.883-2.167 2.313-4.32 2.4 0.995 3.576 0.527 5.956 0.96 9.6 1.39-0.68 2.38-1.78 2.88-3.36zm214.08-8.64c0.026 3.351 3.88 2.573 5.761 2.88-0.809-1.764-2.135-5.53-4.32-4.32 1.22 1.3 0.31 2.22-1.44 1.44zm-46.56-1.44c0.713 1.604 1.231 2.347 0 3.84 1.583-0.018 1.835-1.365 1.92-2.88-0.71-0.25-1.21-0.71-1.92-0.96zm-13.44 1.44c2.649 2.784 9.349 6.774 13.44 2.4-2.93-3.3-8.7-1.29-13.44-2.4zm-5.28 1.44c0.152-0.556 1.485-2.261 1.92-0.96-0.268 1.172-1.857 1.022-1.44 2.88 0.826-0.189 1.23 0.712 1.44 0-2.136-0.709 0.575-1.856 0.479-3.36-0.91-1.38-3.54 0.89-2.4 1.44zm7.2 4.8h0.96c0.445-1.552-4.386-6.135-5.76-4.32 0.002 0.481-0.389 0.571-0.479 0.96 0.718 0.082 1.771-0.171 1.92 0.48-0.691 0.269-1.172 0.749-1.44 1.44 2.41-0.33 2.23 1.93 4.8 1.44zm-7.68 0.48c2.012-1.364-2.835-3.774-4.32-4.8 0.459 0.894-1.438 1.604 0 1.92 0.055-0.585 0.144-1.137 0.96-0.96v0.96c-0.52 2.61 1.52 2.65 3.36 2.88zm-28.8-0.48c0.059 1.222 0.698 1.861 1.92 1.92 1.218-0.861-1.138-2.946 0.96-3.36 0.269 0.691 0.749 1.171 1.44 1.44-0.097-1.664-0.4-3.12-2.4-2.88 0.1 1.7-2.25 0.95-1.92 2.88zm174.72 20.64c1.377 3.517-0.558 6.302 0 8.64 2.768 0.784 5.211-1.562 8.16-1.44 7.168 0.297 15.615 9.012 15.84 13.44 0.139 2.721-2.689 3.937-1.92 6.72 1.416 0.44 2.104-3.963 3.36-5.28 0.889-1.031 0.323-3.516 0.479-5.28-4.16-3.565-5.69-13.354-11.52-17.76-4.584-3.465-13.026-5.848-15.36 0-4.574 3.788-13.805 2.438-15.36-4.32 0.083-4.102 2.59-6.471 3.841-10.56-14.763-5.672-26.949 4.068-30.721 15.36 3.811-1.828 6.421-4.825 10.561-4.8 5.153 0.032 8.396 4.473 13.439 7.2 4.292 2.321 9.575 2.169 10.561 6.24 0.354 2.274-0.54 3.3-0.48 5.28 6.21-1.31 7.27-7.77 9.12-13.44zm-312.48-3.36c0.378-1.849-2.298-1.849-1.92 0h1.92zm2.4 0.96c0.192-2.089-0.383-2.664-1.92-1.92-0.22 1.51 1.21 1.36 1.92 1.92zm0.96-0.96c0.396 0.672 3.126-0.362 3.36-1.44-0.8 0.8-3.5-0.3-3.36 1.44zm288.96 9.12c-3.215-10.25-17.694-9.686-24-2.88 0.286 0.995-0.593 3.153 0.48 3.36 0.692-1.227 2.208-1.631 3.84-1.92 1.264 0.236 1.616 2.646 2.88 1.44 1.848-2.366 7.679-8.575 12-3.36-0.52 1.721-1.324 3.156-3.36 3.36-0.183 1.784 1.945 1.255 1.44 3.36-1.756-0.865-2.196-1.081-2.88 0.96 1.374-0.095 2.619-0.06 2.399 1.44-0.512 0.448-0.148 1.771-1.439 1.44-1.706 0.746-0.29-1.63-1.44-1.44-0.751 2.448-4.269 2.13-4.8 4.8 8.278 5.921 15.539-5.459 22.561-5.28-0.757 2.283-2.417 3.663-5.761 3.36 0.523 2.238 5.355 1.493 7.2 0.96v-1.92c-0.295-2.215 1.078-2.762 0.96-4.8-0.685-0.115-0.81-0.791-1.439-0.96-2.015-1.505-4.353-2.688-7.2-3.36 0.533 2.598 0.538 6.984-0.48 8.16-1.121-0.639-2.704-0.815-3.84-1.44 0.01-2.4 4.4-2.95 2.88-5.28zm-221.28-2.88c3.354-0.233-0.649-5.34-1.44-4.32 0.97 0.96 1.64 2.2 1.44 4.32zm-57.6 2.4c-0.084-1.396 1.687-3.391 0.48-4.32 0.1 1.42-1.89 3.18-0.48 4.32zm269.76-1.44c0.908 0.107 1.06-0.541 1.92-0.48 0.251-2.364-3.19-1.323-3.84-0.48 1.854 2.199-2.004 2.777-1.92 4.8 0.954 0.006 0.61 1.31 1.92 0.96 1.14-1.1 0.83-3.65 1.92-4.8zm-12.48 9.6c0.919-0.444 1.971-5.052 0-5.28-0.69 1.59-1.48 4.03 0 5.28zm-144.96 7.2c0.101 1.979-0.051 4.21 1.92 4.32 0.021-1.899-0.47-4.31 1.439-4.32 0.686 0.64 0.686 2.719 0 3.36 2.93-0.212 2.136-5.319 0-5.76-0.71 1.21-2.15 1.69-3.36 2.4zm-201.12 5.76c-15.468 13.332-27.777 57.343-27.84 56.16 11.959-9.961 20.426-23.414 31.68-34.08-1.563-7.08-1.109-16.17-3.84-22.08zm407.04 6.72c1.042-0.718 0.767-2.754 2.4-2.88 0.603 0.197 0.98 0.619 0.96 1.44-0.087 1.354-2.282 0.599-1.921 2.4 1.182 0.941 2.659-0.896 3.841-1.44 1.41-7.26-10.92-3.54-5.28 0.48zm-233.76 19.68c-0.121-1.639-1.213-2.306-0.96-4.32-2.52 2.058-1.146 9.292-2.88 14.4-0.696 6.243-1.109 10.646-3.36 15.84 3.97-0.83 7.361-2.239 11.04-3.36-1.246-3.034 0.181-5.329 0.96-7.68-3.02-3.54-3.34-9.78-4.8-14.88zm-120.96 20.16c-0.005 4.579 8.967 10.211 13.44 11.52-1.148-7.971-3.978-14.262-8.64-18.72-0.741 3.64-4.794 4.01-4.797 7.2zm-58.56-1.92c0.067-1.987-0.132-3.708-0.96-4.8 0.106 1.546-0.849 2.031-0.48 3.84-2.124 27.927 12.057 55.699 10.56 84.48 9.841 2.968 21.975 6.174 33.12 6.24 0.207-15.908-1.621-28.238-8.16-37.44-2.251-3.168-6.038-5.526-8.64-8.64-10.643-12.73-20.911-25.48-25.44-43.68zm189.6-1.92c-2.288 0.432-3.849 1.591-4.32 3.84 1.75 3.78 7.59-1.05 4.32-3.84zm25.92 3.84c1.883 0.195 3.053-1.245 3.84 0.48 0.15-0.649 0.683-0.917 0.479-1.92-1.61 0.31-3.5 0.34-4.32 1.44zm-55.68 12c-0.989 4.717 0.393 8.915-0.96 12.96 6.421 4.255 16.475 0.043 21.6-2.88 1.818 1.012-2.131 2.661 0.48 2.88 1.196 1.916 3.465-1.908 3.84 0.48-1.897 3.645-8.234-2.266-9.12 2.88 5.812 2.744 13.36 1.881 12.96-4.32-0.217-3.372-5.417-4.294-4.32-8.16 2.794 2.646 5.337 5.542 6.72 9.6-1.67 2.33-3.906 4.094-5.76 6.24 5.107-1.449 10.289-5.702 9.6-10.56-0.6-4.225-7.494-5.911-7.68-10.56 2.453 2.775 9.29 6.544 9.6 11.04 0.202 2.927-2.667 4.733-2.879 7.2 2.645-4.03 7.429-7.175 5.76-11.52-1.622-4.22-8.659-6.897-8.161-12.48 1.728 0.353 2.193 1.967 2.88 3.36 8.204-2.516 18.971-2.469 24.479-7.68-18 0.35-43.56 4.01-59.04 11.52zm-172.32-8.16c-2.802 3.438-7.032 5.448-8.64 10.08-0.197-0.603-0.619-0.981-1.44-0.96-0.624 8.274 0.678 16.995-1.92 24-7.062-1.174-8.708 10.749-0.96 10.08 0.241-2.32-1.497-2.663-1.44-4.8 1.129-0.987 3.689-0.497 3.84 0.96-0.276 1.004-1.19 1.37-0.96 2.88 2.576 0.392 5.053-3.191 4.8-7.2-9.008-8.49 5.452-26.51 6.72-35.04zm188.64 29.76c1.411 0.269 5.159-0.789 6.72-1.92-3.18-0.66-5.88-1.56-6.72 1.92zm-35.52 0.48c2.447 8.113 2.939 18.181 9.12 22.56 4.514-6.046 5.63-15.49 7.2-24.48-0.054-0.586-0.144-1.137-0.96-0.96-1.96 8.44-9.15 1.64-15.36 2.88zm-1.92 0c-2.024 0.055-1.591 2.569-1.92 4.32 1.113-0.153 1.843 0.077 2.4 0.48 0.16-1.92-0.85-2.66-0.48-4.8zm-10.56 11.52c1.258 2.902 0.974 7.346 0.96 11.52 2.478-2.492 6.376-9.574 3.36-12.96-0.94 0.98-2.4 1.43-4.32 1.44zm-133.44 1.44c-7.451-3.689-11.953 8.798-4.32 10.08 0.497-0.638 0.018-3.21-0.48-4.32 0.914-0.206 1.206-1.034 2.4-0.96 1.227 1.284-0.29 2.531 0 4.32 6.401-1.17 5.594-7.54 2.4-9.12zm151.2 14.4c0.279 1.481 1.735 1.785 2.88 2.4 0.632-1.488-1.423-2.663 0-3.36h1.44c0.291 0.989-0.774 3.334 0.96 2.88 1.383-0.633 0.986-3.042 0.48-4.32-2.44-1.13-5.42-0.02-5.76 2.4zm-16.32 1.92c0.42-0.477 1.336-4.156-0.48-3.84 0.3 1.15-0.6 3.48 0.48 3.84zm-8.64 19.2c0.148-3.64 1.822-0.699 2.88 0 0.041-2.121 0.093-4.253-1.92-4.32-0.6 0.86-2.4 3-0.96 4.32zm-115.2 13.92c0.465 2.325-1.39 1.111-2.4 0.96-4.571 8.214-12.867 19.51-17.76 31.68-2.094 5.209-4.71 12.46-5.28 17.76-0.174 1.621 0.641 3.822 0.48 5.76-0.697 8.36-7.76 20.574 0.48 24.479 1.948-3.021 1.687-6.668 2.4-10.56 1.102-6.014 1.185-14.044 4.8-17.76 5.635 4.038-1.402 10.643-1.92 17.279-0.321 4.125 0.844 8.309 2.4 10.561 5.667 8.197 15.616 3.104 17.28-6.24 1.219-6.844-3.012-10.522-2.4-14.88 0.404-2.882 2.409-4.261 4.8-5.28 9.069 3.585-0.333 12.966 0 20.641 3.121 18.22 25.702 10.557 22.56-7.681-0.602-3.492-3.361-5.738-2.4-8.64 0.831-2.508 4.838-3.143 7.68-2.88 3.999 6.207-2.939 11.872-0.96 20.64 4.739 14.063 26.737 9.738 24-6.72-1.061-6.383-4.884-11.035 0.96-14.4-0.033-5.406-1.009-9.871-1.92-14.399-1.361 1.934-2.538 6.292-4.8 5.76 4.95 4.717-4.38 9.89-6.24 3.84 2.314-3.497 0.557-4.332-0.48-7.68-0.733-2.368-0.424-5.891-0.96-8.16-0.682-2.893-2.703-5.422-3.36-8.64-1.195-5.856-0.073-11.76-0.48-18.72-11.765-2.44-24.701-1.77-36.48-6.72zm105.12 8.16c0.176 1.424 0.832 2.368 1.92 2.88-1.003-2.322-0.697-3.626 1.44-1.92 0.02-1.459 0.279-3.159-1.44-2.88-0.43 0.85-1.07 1.49-1.92 1.92zm-22.08 33.12c-0.169 1.929 0.007 3.512 1.44 3.84-0.248-1.808-0.607-2.187 0.96-2.88 0.202 0.918 0.174 2.065 1.44 1.92 0.012-1.771-0.215-3.306-1.92-3.36-0.09 0.71-1.16 0.44-1.92 0.48zm-39.357 8.16c0.512 0.447 0.149 1.771 1.44 1.439-0.44-2.956 1.325-1.538 2.4-0.96-0.085-1.515-0.337-2.862-1.92-2.88-0.482 0.96-2.122 0.76-1.92 2.4zm-72.48 14.4c-0.35-3.398 2.659-5.969 1.44-8.64-0.26 2.79-3.113 5.52-1.44 8.64zm88.797 1.44c-0.146-1.12-1.025-2.068 0.48-2.4 1.665-0.226 0.275 2.604 1.44 2.88 1.483-2.707 0.812-4.499-0.96-6.72-0.027 0.293-0.072 0.568-0.48 0.479-0.19 0.92-3.359 4.23-0.48 5.76zm53.28 129.6c2.604-4.117 5.913-7.527 8.16-12-2.761 1.447-4.843 7.602-8.16 10.08-1.128-1.943-0.796 0.383-2.4 0.48 2.857-5.143 7.062-8.938 9.6-14.4-5.061-13.396-2.381-30.459-2.4-47.521-0.023-21.014-4.795-41.36-6.72-58.56-2.165 1.035-1.892 4.508-3.84 5.76 10.191 7.42-11.179 15.021-5.28 1.44-1.994-1.366-3.14-3.58-4.8-5.28-0.784 4.017-4.017 5.583-6.72 7.68 2.016 0.866 2.083 0.991 2.4 2.881 1.573 9.38-14.098 5.445-7.68-2.881-3.298-0.541-6.571-1.108-7.2-4.319-2.875 2.403-5.518 5.041-8.64 7.2 8.578 6.919-8.643 14.96-9.12 5.279-0.126-2.552 1.455-3.36 2.88-5.279-4.072-0.568-7.337-1.943-8.16-5.761-2.052 2.269-4.758 3.882-6.24 6.721 2.908 12.417 7.711 23.985 12 35.52 4.433 11.92 10.595 22.348 14.88 33.12 2.967 7.459 13.425 10.916 16.32 18.24-4.702-3.938-8.106-9.175-12.96-12.96 4.692 10.159 7.773 23.826 11.04 35.52 1.929 6.903-0.405 15.538 0.48 22.561 1.575 12.489 5.864 23.449 11.04 32.64 10.162 18.043 22.025 34.208 26.4 58.08 9.665 4.414 20.363 7.797 26.4 15.84-2.062-9.254-7.799-17.646-10.08-27.36-7.075-30.128-7.526-67.192-17.76-94.56-0.138 1.461 0.077 3.276-1.44 3.36 1.838-8.466-2.337-14.459-3.36-21.601-2.91 3.01-5.51 8.89-8.64 10.08zm3.36-112.32c0.359-1.479-1.655-0.585-0.96-2.399 0.613-0.026 0.665-0.615 1.44-0.48 2.265 0.089-0.859 2.586 1.44 2.4 1.312-1.973-1.054-4.372-2.88-4.8-2.38 0.63-1.71 7.17 0.96 5.28zm-137.76 0c-0.297-1.303 0.609-3.809-0.48-4.319 0.335 2.095-1.386 2.134-1.44 3.84 0.908-0.1 1.059 0.54 1.92 0.48zm126.72 3.84c0.232-1.513-1.474-1.087-0.96-2.881 0.907 0.108 1.059-0.541 1.92-0.479 1.092 0.348-0.442 3.322 1.44 2.88 0.417-3.394 0.688-5.545-2.4-6.24-2.6 0.71-3.56 6.28 0 6.72zm-17.28 3.36c0.36-1.64-1.95-0.609-1.44-2.399 0.849-0.432 1.401-1.159 2.4-1.44 0.662 0.619 0.475 2.085 0.48 3.36 2.927-1.238 0.503-4.758-0.48-6.24-4.05-0.29-5.18 6.45-0.96 6.72zm-115.2-5.28c-0.079 2.159-0.107 4.268 1.44 4.801-0.339-1.132-1.102-3.045 0.96-2.88 1.273-0.153-0.449 2.688 1.44 1.92v-4.32c-1.286-1.23-2.842-0.02-3.84 0.48zm89.277 6.24c0.948 0.812 0.75 2.771 2.88 2.4 0.36-1.641-1.95-0.61-1.44-2.4 0.617-0.822 0.993-1.888 2.4-1.92 1.446 1.034 0.739 2.954 0 4.32 8.8-2.76-2.72-13.19-3.84-2.4zm-21.597 4.8c0.148-1.612-0.641-4.16 1.44-3.84 1.716 0.611 1.264 1.566 0.96 3.36 3.191-0.841 2.158-4.476 0.96-6.72-4.447-3.79-8.381 5.62-3.36 7.2zm-24.48-7.2c-4.649-2.288-7.364 5.789-2.88 7.199-0.813-2.382-0.511-5.666 2.4-3.84-0.427 1.173-1.119 2.081-0.96 3.84 3.258-0.83 3.094-4.94 1.44-7.2zm-25.92 7.68c1.093-1.149-1.053-1.768-0.48-3.84 2.801-1.123 2.283 1.677 2.88 3.359 0.824-0.775 1.192-2.007 0.96-3.84-3.784-4.74-8.192 1.72-3.36 4.32zm125.28 93.12c0.566-0.683 1.853-2.905 1.92-3.84-2.25 2.41-4.57 7.04-1.92 3.84zm-77.277 5.76c-2-0.079-4.006-0.166-4.8 0.96 0.063 2.496 0.907 4.213 1.92 5.76 5.069 0.64 5.733-4.38 2.88-6.72zm-43.2 8.16c-1.562-1.729-0.697-6.86 1.92-5.28 0.26 1.7-1.7 1.181-1.44 2.88 0.636 0.804 1.271 1.608 0.96 3.36 2.285-0.559 2.471-6.269 0.96-7.68-4.153-1.02-5.962 7.2-2.4 6.72zm30.72-6.24c0.367 1.919-2.427 1.97-1.92 5.28 0.908 0.107 1.059-0.541 1.92-0.48-0.006 0.954-1.31 0.61-0.96 1.92 0.803 0.637 1.608 1.272 3.36 0.96 0.084-2.483-0.984-3.815-1.44-5.76 0.614-0.026 0.665-0.615 1.44-0.479 1.724 1.183 0.211 3.912 1.92 5.76v-6.72c-1.637-0.75-2.522-0.83-4.32-0.48zm-15.36 7.68c-1.016-1.817 0.185-2.998 0-5.279-8.763-6.78-11.023 10.76 0 5.28zm8.64-6.72c-5.83-3.639-9.255 6.98-3.84 8.641-0.968-2.966 0.396-2.702-1.44-4.801 0.724-1.475 3.039-2.716 4.32-0.96 0.596-1.3 1.853-1.19 0.96-2.88zm-1.44 7.2c1.417-0.663 1.943-2.217 3.36-2.88 0.196-1.156-0.877-1.044-0.48-2.4-2.097 1.264-4.46 2.261-3.84 6.24 4.148-0.78 3.269-2.03 0.96-0.96zm-17.76 80.16c-7.697 8.938-16.668 22.029-17.28 37.92-0.382 9.925 2.666 18.049 5.76 26.88-2.564-1.756-1.86-6.779-3.84-9.12 1.762 6.583 1.473 12.478 0.48 17.76 2.117 0.678 0.008-2.872 1.44-2.88 0.936 2.425 0.865 5.854 4.32 5.761-0.95-2.737-3.853-6.059-2.4-9.601 1.085 4.198 1.805 11.311 7.2 9.601-3.826-0.545-6.314-7.378-3.84-11.04-0.292 5.251 0.606 9.313 4.32 10.56-0.809-1.922-3.113-4.873-1.44-7.68 0.755 3.085 1.081 6.599 3.36 8.16-0.297-2.753-2.562-6.066-1.44-8.641 2.012 2.628 0.96 8.319 4.32 9.601-0.185-2.807-2.664-5.505-1.92-7.681 2.948 1.692 0.944 8.336 5.76 8.16-0.984-2.259-4.785-6.133-2.88-8.16 1.245 2.123 1.865 7.405 4.32 6.721-1.04-1.361-3.112-3.707-2.4-5.28 2.072 2.088 3.127 5.192 5.76 6.72 1.759-1.565 3.355-0.315 5.28-0.96 11.304-3.787 15.623-15.449 24-22.56 3.484-3.927 5.347-11.513 0.96-15.841-6.555 2.565-12.647 5.593-19.2 8.16 7.85-8.949 24.596-9.004 24.96-25.439-1.901-2.1-3.551-4.45-7.2-4.8-0.466 2.721 1.18 7.287 0.96 10.079 1.291-0.948 0.81-3.67 2.4-4.319v3.359c-3.503 7.832-11.73 10.216-18.24 14.881-6.345 4.546-7.792 12.213-12.96 18.239-1.176-2.393 1.476-4.66-0.48-7.2-1.795 3.806-5.184 6.017-6.24 10.561 3.703 3.657 5.34 9.38 8.64 13.439-5.773 0.766-5.403-4.414-10.08-10.56-2.055-2.699-5.598-6.108-7.2-9.12-8.144-15.308-8.48-50.567 9.12-55.2-1.58-0.02-2.39-0.81-4.32-0.48zm0.96 5.28c1.205-0.716 2.644-1.196 3.36-2.4-2.788-0.582-5.422 1.484-6.72 3.36-8.857 12.794-6.032 43.922 3.84 52.319 2.814-3.707 8.398-8.008 8.64-12 0.276-4.568-6.408-9.697-1.92-16.319 2.001-2.959 5.292-4.629 7.2-7.681 1.676-3.256-1.012-5.926-0.96-9.12v-0.479c-0.907-0.054-0.333-1.587-1.44-1.44-0.22 2.5-2.456 2.984-3.36 4.801-3.053 0.332-4.627-0.812-7.68-0.48-2.521-1.8-3.354-7.92-0.96-10.56zm5.28-0.48c-5.598-0.182-6.459 9.511-0.96 10.08 0.688-1.283-0.432-4.17-0.96-5.76 0.854-0.427 1.22-1.341 2.88-0.96-0.001 0.481 0.389 0.571 0.48 0.96-0.231 1.751-1.899 3.872-0.48 5.76 3.642-0.567 4.386-4.769 3.84-8.16-1.279-1.44-3.333-2.106-4.8-3.36v1.44zm6.24 47.52c3.156-4.977 0.187-11.274 0.48-16.801 0.201-3.782 3.104-6.394 1.92-9.6-8.327 5.2-3.25 17.92-2.4 26.4z" fill="#130F06"/>
	<path d="m79.183 132c-0.632 1.21-1.576-1.259-2.88-0.96 4.739 3.523 8.272 12.573 15.36 15.84 1.671 0.77 4.341 0.592 6.24 1.44 2.18 0.974 3.43 2.938 5.28 3.36 5.445 1.241 12.835-0.52 16.8-4.32 5.703 0.792 9.196-4.483 12-8.16 2.417 8.12 7.995 13.137 10.56 21.6 1.807 5.961-0.473 16.106 2.4 21.6-15.088 4.158 2.06 25.138 8.64 9.12 1.222 7.723-1.513 18.263-1.44 27.36-4.212-13.228-17.203-17.677-19.2-33.12-0.956-0.484-1.096-1.784-1.92-2.4-0.925 13.017-6.169 25.814-8.64 38.88-3.4 1.371-6.424-4.168-9.6-0.48-1.966-2.659-1.751-5.739-2.4-8.64-2.276-10.175-8.552-18.314-8.64-30.72-3.124 7.117-7.146 13.334-9.6 21.12-12.908-6.453-23.822-14.898-24-34.08 0.427-1.463 3.688-3.672 0.96-5.28-4.017 2.063-5.851 6.31-10.56 7.68 2.645-4.862 0.928-10.868 1.44-15.84 0.744-7.225 5.191-10.082 9.6-13.92 0.3-1.78 1.35-2.811 1.92-4.32 2.53 0.991 4.495 2.546 6.72 3.84-2.25 1.115-3.389-3.001-6.72-2.4 1.922 2.878 3.698 5.902 9.12 5.28 0.036-5.636-3.087-8.112-8.16-8.64-0.553-3.753 0.979-5.421 1.44-8.16 2.514 0.69 3.168 3.24 5.283 4.32zm38.877 19.2c1.626-1.254 4.371-1.389 5.28-3.36-1.5 1.07-5.76 1.91-5.28 3.36z" fill="#E7A614"/>
	<path d="m113.74 149.28c0.968-2.232 3.778-2.622 6.72-2.88-4.232 3.934-10.538 4.203-17.28 3.84-2.1-1.42-4.387-2.653-6.24-4.32-11.995-1.925-14.245-13.595-22.56-19.2 0.438-1.801 1.087-3.393 1.44-5.28 3.699 7.501 9.231 13.168 13.92 19.68-1.893-7.708-10.25-13.11-12.96-21.6 1.726-5.499 3.937-12.99 2.88-19.68-1.117 2.244-0.458 6.262-1.44 8.64-0.562-4.727 0.389-12.088 2.88-15.36-7.435 5.045-3.417 21.542-9.12 28.32-0.011 1.131 0.827 1.413 0.48 2.88-1.886 7.173-6.637 13.312-11.04 19.68-3.006 4.348-3.975 7.818-4.32 14.4-0.211 4.019-0.324 9.063-1.44 12.96-1.774 6.197-5.875 10.249-5.28 17.76 0.605 1.794 3.027 1.772 3.36 3.84-0.392 3.928-0.661 7.979-4.8 8.16-0.473-2.199 3.172-1.869 1.44-3.84-0.116-0.844-0.826-1.094-1.92-0.96-2.887 0.265-1.158 2.249-1.44 4.8-5.671-0.9-4.041-9.992 0.96-10.56 2.343-15.42-1.875-30.714-3.36-46.56-0.714-7.629 2.592-11.854 3.84-18.24 3.863-19.772 8.236-37.395 20.64-48.96 5.856 1.504 11.026 3.694 14.88 7.2-4.849 6.06-8.79 12.816-13.92 18.72-7.75 8.92-17.269 15.953-20.16 28.32 2.829-0.935 2.008-3.449 2.88-5.28 6.362-13.363 20.137-20.552 26.4-34.08 2.356-1.804 3.664-4.657 6.24-6.24v-2.4c6.235-3.365 6.806-12.394 12.96-15.84 4.978 0.658 6.188-2.452 9.12-3.84-0.11-6.627-7.99-8.259-9.12-13.92-0.436-2.183 1.449-8.429 2.88-11.04 1.531-2.795 5.226-8.018 8.64-12.48 6.195-8.096 12.609-12.503 22.08-17.76 4.805-2.667 9.576-6.646 15.84-5.76 2.587 0.366 9.588 4.013 11.52 6.72 2.213 3.101 1.23 7.296 1.92 11.521 0.373 1.386 1.752 1.767 2.4 2.88 0.253 4.414-0.888 7.432-4.8 7.68-0.459-2.059 1.346-1.853 1.44-3.36-1.44-2.351-5.097-0.031-5.28 1.92 1.539 0.971 1.501-1.899 1.92-0.48v2.4c-8.313-0.793-3.838-11.784 1.92-12 1.397-7.124-1.976-11.575-6.72-13.92-7.809 0.44-17.833 6.286-20.16 14.4-2.159 7.529 3.39 17.33 1.92 27.84-0.745 5.326-5.32 10.637-5.76 14.4-0.904 7.729 5.696 13.369 5.28 17.76 2.044 0.996 4.695 1.385 6.72 2.4-0.078 0.562-0.875 0.405-1.44 0.48 3.588 2.651 3.042 9.437 8.64 10.08-2.854-2.426-4.523-6.037-6.72-9.12 2.929-0.202 5.27 4.326 7.68 6.24-0.472 1.472-1.281-0.551-1.92-0.48 2 3.487 3.968 6.031 4.8 11.04 0.451 2.718 0.145 5.061 0.96 7.68 0.372 1.194 1.554 2.389 1.92 3.84 2.552 10.102-2.86 20.587-2.88 31.2-0.007 3.822 0.84 7.525 0.48 11.04-1.057 10.318-6.684 18.007-4.32 29.76 6.202 0.627 4.484 10.993 0 10.56-1.116-1.585 1.384-2.874 1.44-4.8-0.614-0.657-2.266-0.657-2.88 0-0.929 1.535 0.318 3.106-0.48 5.28-5.408-0.87-5.698-7.729-1.92-10.56 1.478-0.357 0.923 1.318 2.4 0.96 0.098-6.007 0.91-13.311 0.48-19.2-0.985-13.479-11.788-23.017-12.48-36.96-4.356 0.642-4.534 9.518-8.16 12.48 0.917 0.257 3.209-2.216 4.32-3.36 1.879 1.456-2.676 3.774-3.36 5.76-0.33-3.444-2.409 2.593-5.28 2.4 0.226-2.036 2.655-2.707 3.84-4.8 2.713-4.797 2.658-12.293 8.16-14.4-0.711-8.551 3.876-11.804 7.2-16.32 0.864-3.316-1.168-5.531-0.96-8.64 0.148-2.21 1.94-4.077 1.92-6.24-0.043-4.716-4.007-9.111-5.28-13.92-4.222-0.519-6.951 1.381-11.04 1.92-13.058 1.72-25.627-6.139-33.12 4.32-1.425 3.955 1.805 8.143 2.4 12.96 0.882 7.136-1.157 15.09-0.96 21.6 0.365 12.086 8.499 19.588 19.2 22.56-5.971 3.905-11.64-9.65-16.32-1.44 2.258 0.462 4.185 1.255 6.72 1.44-0.7 1.688 1.358 1.85 0 2.88 2.38-0.17 8.4 0.66 10.56 0.48z" fill="#E7A614"/>
	<path d="m100.78 86.403c6.61-3.579 15.231 1.173 23.04 0.96-7.75 2.121-14.94-3.891-23.04-0.96z" fill="#E7A614"/>
	<path d="m96.943 110.88c3.659 2.843 0.845 8.074 0.96 12.48 0.171 6.542 5.589 11.91 6.24 15.36-6.078-6.12-9.633-15.72-7.197-27.84z" fill="#F2D2AE"/>
	<path d="m124.3 133.44c-0.707 3.933-0.127 9.153-3.84 10.08 2.596-2.34 2.546-7.174 3.36-10.08h0.48z" fill="#E7A614"/>
	<path d="m125.74 123.36c-4.817 4.883-11.873 0.655-15.84-2.88-1.465-2.348 2.356 0.665 2.88-0.96 1.747-0.493 2.969-1.511 4.8-1.92 1.16 3.48 6.63 2.65 8.16 5.76z" fill="#F2D2AE"/>
	<path d="m130.06 119.52c2.833-9.896-8.498-19.192-1.44-27.36-5.51 8.69 6.44 18.17 1.44 27.36z" fill="#E7A614"/>
	<path d="m103.18 105.6c4.126-1.886 6.635 4.027 11.52 1.44-3.83 3.43-7.56-0.82-11.52-1.44z" fill="#E7A614"/>
	<path d="m100.78 86.403c8.093-2.931 15.29 3.081 23.04 0.96 2.535-0.505 5.204-0.876 7.68-1.44v0.48c1.131 0.011 1.414-0.827 2.88-0.48 0.947 1.132 0.947 3.213 1.44 4.8-2.493-1.35-5.526 0.421-7.2 1.44-7.058 8.168 4.273 17.464 1.44 27.36-0.169 0.63-0.845 0.755-0.96 1.44-2.513-1.807-6.081-2.559-8.64-4.32-1.21-1.204 0.918-1.519 1.44-2.4-4.955 1.008-11.96 5.224-17.28 0.48-1.12 0.161-2.068 0.492-2.4 1.44h-0.48c0.535-3.735-1.304-5.096-1.44-8.16 1.021-0.74 1.787-1.733 2.88-2.4 3.961 0.62 7.684 4.867 11.52 1.44 1.278-0.66 4.22-2.156 2.88-3.84-1.676 1.486-3.966 3.959-7.2 2.4-0.079-1.359 2.958 0.398 2.88-0.96 1.78-0.46 3.304-1.176 4.32-2.4 0.334-1.614-0.986-1.573-1.44-2.4-0.656-1.399 1.745 1.095 2.4 1.44-3.547-7.684-12.854-1.098-17.76 0.48h-0.48c-0.013 0.467-0.588 0.373-0.96 0.48 0.016 2.004 1.852 2.145 2.88 0.96h0.48c0.697 0.263 2.481-0.561 2.4 0.48-3.566-0.206-3.174 3.546-7.2 2.88v0.48h-0.96c0.412-7.132-2.264-11.175-3.36-16.8 2.312-1.368 4.16-3.2 7.2-3.837zm16.32 8.64c1.168-0.592 3.115-0.405 3.36-1.92-4.57-4.323-16.762-2.915-20.64 2.4 1.684 1.333 2.591-1.318 4.8-0.96 4.23-1.931 9.62 1.101 12.48 0.48z" fill="#F2D2AE"/>
	<path d="m300.94 103.2c-5.937 0.709-11.314-1.44-15.84-2.88 0.151-1.129 2.275-0.285 1.92-1.92-3.014 0.032-6.314 3.921-9.6 5.28-4.674-0.194-8.512 0.448-12 1.439 1.812-6.257-2.816-9.891-2.88-15.84 5.915-0.817 10.062-4.827 17.279-2.88 2.092 0.798 7.509 0.798 9.601 0 2.419 0.047 3.299-0.852 4.8 0.48 3.353 2.407 6.424 5.096 8.64 8.64-1.35 1.296-5.186-0.603-7.68-0.48 1.551-2.752-0.951-4.094-2.4-5.28v-0.48c-0.775 0.135-0.826-0.454-1.439-0.48-0.661 0.619-0.476 2.085-0.48 3.36-2.945 0.226-2.608-2.831-4.319-3.84-1.521 0.4-2.44 1.4-3.36 2.4 0.148 0.652 1.202 0.398 1.92 0.48-0.507 1.26-1.836 2.158 0.96 1.92 2.271 1.09 3.927 2.793 6.72 3.36 1.004-0.203 1.271 0.329 1.92 0.48 1.608 2.133 4.5 3.42 3.36 5.76 2.092 0.767 1.736-1.667 2.88-0.48v0.96z" fill="#F2D2AE"/>
	<path d="m294.7 96.963c2.225 1.622 6.446 3.786 6.24 6.24v-0.96c-1.144-1.188-0.788 1.247-2.88 0.48 1.14-2.34-1.75-3.624-3.36-5.757z" fill="#E7A614"/>
	<path d="m286.06 93.123c2.862 0.498 4.544 2.176 6.72 3.36-2.79-0.567-4.45-2.271-6.72-3.36z" fill="#E7A614"/>
	<path d="m294.22 86.883c4.091 2.309 7.981 4.819 9.6 9.6-0.521-0.119-0.325-0.955-0.96-0.96-2.21-3.544-5.28-6.233-8.64-8.64z" fill="#E7A614"/>
	<path d="m104.62 94.563c2.798-1.919 10.101-1.105 12.48 0.48-2.86 0.621-8.25-2.411-12.48-0.48z" fill="#E7A614"/>
	<path d="m131.98 94.083c5.035-1.375 8.36 3.954 4.8 6.72-0.108-3.521-4.586-3.762-7.68-2.88-0.02-2.264 1.76-2.725 2.88-3.837z" fill="#F2D2AE"/>
	<path d="m136.3 105.12c0.169-0.63 0.845-0.755 0.96-1.439-1.71-0.076-4.441 3.291-5.76 0.479 1.997 0.373 4.991-0.737 4.32-1.44 3.391-0.194 3.717 9.367 0.48 11.04h-0.48c2.11-1.73 2.49-6.39 0.48-8.64z" fill="#E7A614"/>
	<path d="m97.903 107.04c3.46 8.349-1.206 22.875 5.76 26.88h0.48c-0.914 1.264 1.079 2.83 1.44 4.32-0.119 0.521-0.954 0.326-0.96 0.96-0.408 0.088-0.453-0.187-0.48-0.48-0.65-3.45-6.068-8.817-6.24-15.36-0.116-4.406 2.699-9.637-0.96-12.48v-3.84h0.963z" fill="#E7A614"/>
	<path d="m305.26 104.64c-0.085 1.515-0.337 2.862-1.92 2.88 1.231-1.493 0.713-2.236 0-3.84 0.71 0.25 1.21 0.71 1.92 0.96z" fill="#E7A614"/>
	<path d="m287.02 105.12c0.096 1.504-2.615 2.651-0.479 3.36-0.21 0.712-0.614-0.189-1.44 0-0.417-1.857 1.173-1.708 1.44-2.88-0.435-1.301-1.768 0.404-1.92 0.96-1.14-0.55 1.49-2.82 2.4-1.44z" fill="#E7A614"/>
	<path d="m303.34 107.52c-4.092 4.374-10.791 0.383-13.44-2.4 4.74 1.11 10.51-0.9 13.44 2.4z" fill="#F2D2AE"/>
	<path d="m287.02 107.04c1.374-1.815 6.205 2.768 5.76 4.32h-0.96c-0.74-2.1-3.18-4.65-4.8-4.32z" fill="#E7A614"/>
	<path d="m287.02 107.04c1.621-0.335 4.061 2.219 4.8 4.32-2.568 0.489-2.389-1.771-4.8-1.44 0.269-0.691 0.749-1.171 1.44-1.44-0.148-0.651-1.202-0.398-1.92-0.48 0.09-0.39 0.48-0.48 0.48-0.96z" fill="#F2D2AE"/>
	<path d="m284.14 111.84c-0.397-1.682-1.913-2.247-3.36-2.88v-0.96c-0.816-0.177-0.905 0.375-0.96 0.96-1.438-0.316 0.459-1.026 0-1.92 1.49 1.03 6.34 3.44 4.32 4.8z" fill="#E7A614"/>
	<path d="m280.78 108.96c1.447 0.633 2.963 1.198 3.36 2.88-1.84-0.23-3.88-0.27-3.36-2.88z" fill="#F2D2AE"/>
	<path d="m429.1 131.04c2.334-5.848 10.776-3.465 15.36 0 5.829 4.406 7.359 14.194 11.52 17.76-0.156 1.764 0.409 4.25-0.479 5.28-2.009 0.872-1.897 3.862-3.36 5.28-0.77-2.783 2.059-3.999 1.92-6.72-0.225-4.428-8.672-13.143-15.84-13.44-2.949-0.122-5.393 2.225-8.16 1.44-0.558-2.338 1.377-5.124 0-8.64-0.12-0.52-0.95-0.32-0.96-0.96z" fill="#F2D2AE"/>
	<path d="m455.5 154.08c-1.256 1.316-1.944 5.72-3.36 5.28 1.47-1.42 1.36-4.4 3.36-5.28z" fill="#E7A614"/>
	<path d="m105.58 122.4c-0.316-1.443-1.845-1.675-1.44-3.84 2.316-2.8 5.066 0.904 8.64 0.96-0.524 1.625-4.345-1.388-2.88 0.96-1.282-0.837-2.968-3.157-4.8-1.92 3.573 6.347 6.14 13.7 16.32 13.44-8.13 2.73-12.46-4.6-15.84-9.6z" fill="#E7A614"/>
	<path d="m105.58 122.4c3.375 4.996 7.704 12.328 15.84 9.6 2.087-0.313 2.972-1.828 4.32-2.88 0.135 0.775-0.454 0.826-0.48 1.44 0.38 1.66-0.534 2.026-0.96 2.88h-0.48c-0.814 2.906-0.765 7.74-3.36 10.08-5.077 1.421-13.708 0.167-15.84-4.32 0.006-0.634 0.841-0.438 0.96-0.96 1.185-1.217-0.807-3.329-1.44-4.32h-0.48c-0.838-4.168-4.469-7.948-2.4-13.44 3.693 4.307 2.926 13.074 7.2 16.8-0.088-0.408 0.188-0.453 0.48-0.48h0.48c-0.47-3.69-2.89-9.58-3.84-14.4zm15.36 12.96c0.946-0.522 3.055-2.349 1.92-3.36-2.379 4.56-8.428 0.567-10.56 0-2.01 2.31 6.05 6.76 8.64 3.36z" fill="#F2D2AE"/>
	<path d="m112.3 132c1.4 2.355 4.792 5.024 8.64 3.36-2.59 3.4-10.65-1.05-8.64-3.36z" fill="#E7A614"/>
	<path d="m124.3 127.2c-0.234 1.078-2.965 2.113-3.36 1.44-0.14-1.74 2.56-0.64 3.36-1.44z" fill="#E7A614"/>
	<path d="m419.02 145.44v1.92c-1.845 0.533-6.677 1.278-7.2-0.96 3.344 0.303 5.004-1.077 5.761-3.36-7.021-0.18-14.282 11.201-22.561 5.28 0.531-2.669 4.049-2.352 4.8-4.8 1.15-0.19-0.266 2.186 1.44 1.44 1.291 0.331 0.928-0.992 1.439-1.44 0.22-1.5-1.025-1.535-2.399-1.44 0.684-2.041 1.124-1.825 2.88-0.96 0.505-2.105-1.623-1.577-1.44-3.36 2.036-0.204 2.841-1.639 3.36-3.36-4.321-5.215-10.152 0.994-12 3.36-1.264 1.207-1.616-1.204-2.88-1.44-1.632 0.289-3.147 0.693-3.84 1.92-1.073-0.207-0.194-2.365-0.48-3.36 6.306-6.806 20.785-7.37 24 2.88-0.006 2.554-2.224 2.896-3.359 4.32-0.078 0.558 0.105 0.854 0.479 0.96 1.136 0.625 2.719 0.801 3.84 1.44 1.019-1.176 1.014-5.562 0.48-8.16 2.848 0.672 5.186 1.854 7.2 3.36 2.42 1.35-1.07 4.08 0.48 5.76z" fill="#F2D2AE"/>
	<path d="m418.54 139.68c0.63 0.17 0.755 0.845 1.439 0.96 0.118 2.038-1.255 2.584-0.96 4.8-1.55-1.68 1.94-4.41-0.48-5.76z" fill="#E7A614"/>
	<path d="m407.02 143.04c-0.374-0.106-0.558-0.402-0.479-0.96 1.136-1.425 3.354-1.766 3.359-4.32 1.52 2.33-2.87 2.88-2.88 5.28z" fill="#E7A614"/>
	<path d="m187.18 130.56c0.791-1.02 4.794 4.087 1.44 4.32 0.2-2.12-0.47-3.36-1.44-4.32z" fill="#E7A614"/>
	<path d="m398.86 140.64c0.373-1.868 0.383-4.098 1.92-4.8-1.09 1.15-0.78 3.7-1.92 4.8z" fill="#E7A614"/>
	<path d="m398.86 140.64c-1.31 0.35-0.966-0.954-1.92-0.96-0.084-2.023 3.774-2.601 1.92-4.8 0.649-0.843 4.091-1.884 3.84 0.48-0.86-0.061-1.012 0.587-1.92 0.48-1.53 0.7-1.54 2.94-1.92 4.8z" fill="#F2D2AE"/>
	<path d="m123.34 147.84c-0.909 1.971-3.654 2.106-5.28 3.36-0.48-1.45 3.78-2.29 5.28-3.36z" fill="#130F06"/>
	<path d="m221.26 204.96c0.471-2.249 2.032-3.408 4.32-3.84 3.27 2.79-2.57 7.62-4.32 3.84zm2.4-1.44c-0.006 0.954-1.31 0.61-0.96 1.92 0.614 0.026 0.665 0.615 1.44 0.48 0.66-0.61 0.74-2.35-0.48-2.4z" fill="#E7A614"/>
	<path d="m254.86 205.44c-5.509 5.211-16.275 5.164-24.479 7.68-0.688-1.393-1.153-3.007-2.88-3.36-0.499 5.583 6.539 8.26 8.161 12.48 1.669 4.345-3.115 7.49-5.76 11.52 0.213-2.467 3.082-4.272 2.879-7.2-0.31-4.496-7.146-8.265-9.6-11.04 0.187 4.649 7.081 6.335 7.68 10.56 0.689 4.858-4.493 9.111-9.6 10.56 1.854-2.146 4.089-3.911 5.76-6.24-1.382-4.058-3.926-6.954-6.72-9.6-1.097 3.866 4.103 4.789 4.32 8.16 0.4 6.201-7.148 7.064-12.96 4.32 0.886-5.146 7.223 0.765 9.12-2.88-0.375-2.388-2.644 1.436-3.84-0.48-2.611-0.219 1.338-1.868-0.48-2.88-5.125 2.923-15.179 7.135-21.6 2.88 1.353-4.045-0.029-8.243 0.96-12.96 15.48-7.51 41.04-11.17 59.04-11.52z" fill="#F2D2AE"/>
	<path d="m255.82 203.52c0.203 1.003-0.329 1.271-0.479 1.92-0.787-1.725-1.957-0.285-3.84-0.48 0.82-1.1 2.71-1.13 4.32-1.44z" fill="#F2D2AE"/>
	<path d="m16.783 243.84c0.253 4.009-2.224 7.592-4.8 7.2-0.23-1.51 0.684-1.876 0.96-2.88-0.151-1.457-2.711-1.947-3.84-0.96-0.057 2.137 1.681 2.48 1.44 4.8-7.748 0.668-6.102-11.254 0.96-10.08 2.599-7.005 1.296-15.726 1.92-24 0.821-0.021 1.243 0.357 1.44 0.96 1.607-4.632 5.837-6.643 8.64-10.08-1.268 8.53-15.728 26.55-6.72 35.04z" fill="#E7A614"/>
	<path d="m218.86 236.64c-1.561 1.131-5.309 2.188-6.72 1.92 0.84-3.48 3.54-2.58 6.72-1.92z" fill="#F2D2AE"/>
	<path d="m163.66 486.24c1.022 7.142 5.198 13.135 3.36 21.601 1.517-0.084 1.302-1.899 1.44-3.36 10.234 27.367 10.685 64.432 17.76 94.56 2.281 9.715 8.018 18.106 10.08 27.36-6.037-8.043-16.735-11.426-26.4-15.84-4.375-23.872-16.238-40.037-26.4-58.08-5.176-9.19-9.465-20.15-11.04-32.64-0.885-7.022 1.449-15.657-0.48-22.561-3.267-11.693-6.348-25.36-11.04-35.52 4.854 3.785 8.258 9.021 12.96 12.96-2.895-7.324-13.353-10.781-16.32-18.24-4.285-10.772-10.447-21.2-14.88-33.12-4.289-11.534-9.092-23.103-12-35.52 1.481-2.839 4.188-4.452 6.24-6.721 0.823 3.817 4.088 5.192 8.16 5.761-1.425 1.919-3.006 2.728-2.88 5.279 0.477 9.681 17.698 1.64 9.12-5.279 3.122-2.159 5.764-4.797 8.64-7.2 0.629 3.211 3.902 3.778 7.2 4.319-6.418 8.326 9.253 12.261 7.68 2.881-0.317-1.89-0.384-2.015-2.4-2.881 2.704-2.097 5.937-3.663 6.72-7.68 1.66 1.7 2.806 3.914 4.8 5.28-5.899 13.58 15.471 5.979 5.28-1.44 1.948-1.252 1.675-4.725 3.84-5.76 1.925 17.199 6.697 37.546 6.72 58.56 0.019 17.062-2.661 34.124 2.4 47.521-2.538 5.462-6.743 9.258-9.6 14.4 1.604-0.098 1.272-2.424 2.4-0.48 3.317-2.479 5.399-8.633 8.16-10.08-2.248 4.473-5.557 7.883-8.16 12 3.13-1.19 5.73-7.07 8.64-10.08zm-6.24 11.04c0.873-2.715 6.287-5.781 4.32-8.16-0.27 3.42-6.05 5.87-4.32 8.16zm-20.64-22.08c-1.725-6.595-7.927-8.713-11.52-13.439 2.45 5.87 9.08 7.57 11.52 13.44zm-1.92 1.92c-3.324-3.398-7.835-8.162-11.04-10.08 3.21 3.84 6.66 7.42 11.04 10.08zm24.48-2.4c-2.028 2.932-3.492 6.428-4.8 10.08 2.58-2.38 4.1-5.82 4.8-10.08zm-4.32 12c2.647-2.312 4.233-5.687 5.76-9.12-2.79 2.17-4.12 5.8-5.76 9.12zm3.84-16.32c-1.896 2.429-3.526 7.667-3.36 10.56 1.26-3.38 2.96-6.32 3.36-10.56zm-28.32 6.24c-1.586-1.623-3.613-5.336-5.28-5.28 1.95 1.58 2.56 4.49 5.28 5.28zm-0.48 4.8c3.327 2.496 7.453 8.272 12 5.28-1.626-1.414-4.38-1.7-4.8-4.32 1.878 0.376 3.588 3.432 5.28 2.4-2.511-1.01-3.894-3.146-6.72-3.841 0.103 1.174 1.952 1.754 0 2.4-1.642-2.038-3.495-3.865-5.76-5.28 1.216 2.624 3.182 4.498 5.28 6.24-2.43 0.02-3.47-3.86-5.28-2.88zm14.88 17.76c-5.251-3.229-9.865-7.095-13.92-11.52 2.106 5.735 6.675 11.562 12 12.479-3.248-1.716-7.253-5.222-8.16-7.68 2.91 2.38 6.35 6.77 10.08 6.72zm9.12-11.04c-2.346 0.374-3.787 1.653-4.8 3.36 0.713 1.337 2.145-1.015 1.92 0.96 1.552-0.208 1.905-1.615 2.88-2.4-1.714 0.307-2.634 1.363-3.36 0.48 1.1-0.82 2.43-1.41 3.36-2.4zm-2.4 13.92c1.791-0.289 2.354-1.805 4.32-1.92-0.413 1.066 0.216 1.301 0.48 2.4 2.419-1.421 3.605-4.075 6.24-5.28-0.581 1.499-2.073 2.087-2.4 3.84 3.487-1.249 3.646-5.706 3.36-8.64-1.4 7.66-7.98 5.91-12 9.6zm-16.32-3.84c2.409 2.161 6.003 4.085 8.16 4.8-3.663-3.536-8.764-5.636-11.52-10.08 0.59 1.91 1.82 3.89 3.36 5.28zm18.24-0.48c3.469-0.757-5.051-0.578-5.76 0.479 1.82 0.73 4.17-0.5 5.76-0.48zm-12.48 7.2c-1.89-2.91-5.525-4.074-7.68-6.72 1 3.81 4.72 4.89 7.68 6.72zm10.08 6.72c1.795-0.926 4.454-0.986 5.76-2.4-1.84 0.58-6.35 0.99-5.76 2.4zm5.76 0.48c1.049-1.19 2.791-1.688 3.84-2.88-1.49 0.45-4.77 1.6-3.84 2.88z" fill="#E7A614"/>
	<path d="m125.26 461.76c3.593 4.727 9.795 6.845 11.52 13.439-2.44-5.87-9.07-7.57-11.52-13.44z" fill="#130F06"/>
	<path d="m125.26 471.36c1.667-0.056 3.694 3.657 5.28 5.28-2.72-0.79-3.33-3.7-5.28-5.28z" fill="#130F06"/>
	<path d="m159.34 486.72c-0.067 0.935-1.354 3.157-1.92 3.84-2.65 3.2-0.33-1.43 1.92-3.84z" fill="#E7A614"/>
	<path d="m163.66 492.48c0.286 2.934 0.127 7.391-3.36 8.64 0.327-1.753 1.819-2.341 2.4-3.84-2.635 1.205-3.821 3.859-6.24 5.28-0.264-1.1-0.893-1.334-0.48-2.4-1.965 0.115-2.529 1.631-4.32 1.92 4.02-3.69 10.6-1.94 12-9.6z" fill="#130F06"/>
	<path d="m77.263 503.04c-1.013-1.547-1.856-3.264-1.92-5.76 0.794-1.126 2.8-1.039 4.8-0.96 2.853 2.34 2.189 7.36-2.88 6.72zm0.96-5.76c1.615 1.821 1.208 3.112 2.4 4.8 1.288-2.01-0.088-6.29-2.4-4.8z" fill="#E7A614"/>
	<path d="m58.543 507.36c-0.62-3.979 1.744-4.977 3.84-6.24-0.397 1.356 0.676 1.244 0.48 2.4-1.417 0.663-1.943 2.217-3.36 2.88 2.309-1.07 3.188 0.18-0.96 0.96z" fill="#E7A614"/>
	<path d="m160.78 509.28c-1.049 1.191-2.791 1.689-3.84 2.88-0.93-1.28 2.35-2.43 3.84-2.88z" fill="#130F06"/>
	<path d="m135.82 113.76c-0.5 1.58-1.489 2.672-2.88 3.36-0.433-3.644 0.035-6.023-0.96-9.6 2.153-0.087 2.963-1.517 4.32-2.4 2.01 2.25 1.63 6.91-0.48 8.64z" fill="#F2D2AE"/>
	<path d="m125.74 129.12c1.497-2.983 2.812-6.147 5.28-8.16 0.567 2.337 0.2 7.873-2.88 8.16 1.085-1.635 2.218-3.222 2.4-5.76-2.297 1.862-2.976 5.344-5.28 7.2 0.03-0.61 0.62-0.66 0.48-1.44z" fill="#E7A614"/>
	<path d="m115.66 128.64c-0.378-1.849 2.298-1.849 1.92 0h-1.92z" fill="#E7A614"/>
	<path d="m118.06 127.68c1.537-0.744 2.112-0.169 1.92 1.92-0.71-0.56-2.14-0.41-1.92-1.92z" fill="#E7A614"/>
	<path d="m34.543 202.08c-0.369-1.809 0.586-2.294 0.48-3.84 0.828 1.092 1.027 2.813 0.96 4.8-0.818 1.82-0.79-1.04-1.44-0.96z" fill="#F2D2AE"/>
	<path d="m102.22 360.96c0.408 0.089 0.453-0.187 0.48-0.479 1.772 2.221 2.443 4.013 0.96 6.72-1.165-0.275 0.225-3.105-1.44-2.88-1.505 0.332-0.626 1.28-0.48 2.4-2.879-1.53 0.29-4.84 0.48-5.76z" fill="#E7A614"/>
	<path d="m361.9 89.283c-0.842-2.229-0.996 0.582-2.399 0.48 0.041-2.038 1.133-3.026 3.359-2.88 0.547 1.053 1.239 1.961 0.96 3.84 0.437 0.423 1.417 0.083 2.88 0.48 4.927 6.054 14.037 4.644 19.681 9.6 2.989 2.625 3.622 6.562 8.16 6.72-2.006-7.914-9.955-9.885-15.36-14.4-0.295-3.736-6.58-4.853-3.84-8.64 3.342-0.326 3.314 3.146 2.88 5.28 7.595 7.238 21.453 10.393 20.16 24.96-7.454 4.696-19.323 15.635-12.48 26.88 2.31 13.53-8.129 17.117-18.239 19.68-0.795 1.751-2.837 4.324-1.921 6.24 0.544 1.056 3.167 0.033 3.36 1.44 0.959 2.876-2.834 4.803-5.76 2.88 2.973-3.247 1.073-7.348-0.48-11.04 6.07-6.09 16.825-7.495 21.12-15.36-0.254-0.386-0.501-0.779-0.479-1.44-2.364-0.284-3.696 0.464-3.36 2.88-5.369 2.316-8.341 8.887-15.84 9.12-1.479 0.046-2.901-0.852-4.32-0.96-5.212-0.397-8.92 2.292-13.439 2.88-0.986-1.788 0.214-2.969 1.439-3.84 7.545 4.443 9.588-6.34 14.88-8.64 6.296 0.918 13.117-1.531 17.28-4.32 0.074-1.194-0.754-1.486-0.96-2.4-5.783 1.751-9.38 5.362-15.84 4.8-4.734-0.412-8.148-3.112-12.48-1.92-3.382 0.931-4.367 3.589-8.64 3.84-1.259-0.847-1.259-3.474 0-4.32 2.448-0.688 2.052 1.468 3.36 1.92 4.322-3.83 8.172-10.688 15.359-11.52 5.888-0.682 14.774 4.119 18.721-1.92 0.35-1.31-0.954-0.966-0.961-1.92-10.818 5.521-23.387 0.102-29.279-7.2-1.036-0.484-3.326 1.352-4.8-0.48v-2.4c0.809-1.624 2.204 0.317 3.359-0.96 1.05 0.07 1.031 1.209 0.96 2.4 2.788 0.194 5.077 2.418 8.16 2.4 4.555-0.027 8.604-3.252 13.44-2.88 5.091 0.392 7.288 3.722 12.479 2.88-0.447-4.994-5.216-2.754-9.6-4.32-3.12-1.114-4.963-5.176-8.16-6.72-3.245-1.566-5.968-0.992-9.12-2.88 11.25-7.049 20.47 2.512 30.24 5.28 0.841-0.438 1.667-0.892 1.439-2.4-1.756-3.902-5.825-2.506-9.12-3.36-8.023-2.081-10.494-9.038-14.399-15.36-2.362-0.102-4.055 1.266-4.32-1.44 0.85-0.901 1.49 0.659 1.92-0.957zm-13.44 68.157c0.867-0.823-0.147-1.888-1.44-1.92-0.13 1.26 0.18 2.07 1.44 1.92zm19.2 14.4c0.125-1.565-0.57-2.31-1.921-2.4-0.2 1.64 0.15 2.74 1.92 2.4z" fill="#E7A614"/>
	<path d="m100.78 101.76c4.905-1.578 14.213-8.164 17.76-0.48-0.655-0.345-3.056-2.839-2.4-1.44 0.454 0.827 1.774 0.786 1.44 2.4-1.016 1.225-2.54 1.94-4.32 2.4-3.673-0.013-6.741-3.17-10.56-1.44h-0.48c-1.04 0.09-1.52-0.39-1.44-1.44zm9.6-2.397c2.046-0.615 2.873 0.535 4.32-0.48-0.96-0.821-3.89-0.699-4.32 0.48z" fill="#130F06"/>
	<path d="m78.223 308.16c0.407 6.96-0.715 12.864 0.48 18.72 0.657 3.218 2.678 5.747 3.36 8.64 0.536 2.27 0.227 5.792 0.96 8.16 1.037 3.348 2.794 4.183 0.48 7.68 1.86 6.05 11.19 0.877 6.24-3.84 2.262 0.532 3.439-3.826 4.8-5.76 0.911 4.528 1.887 8.993 1.92 14.399-5.844 3.365-2.021 8.018-0.96 14.4 2.737 16.458-19.261 20.783-24 6.72-1.979-8.768 4.959-14.433 0.96-20.64-2.841-0.263-6.849 0.372-7.68 2.88-0.961 2.901 1.798 5.147 2.4 8.64 3.142 18.237-19.439 25.9-22.56 7.681-0.333-7.675 9.069-17.056 0-20.641-2.391 1.02-4.396 2.398-4.8 5.28-0.612 4.357 3.619 8.036 2.4 14.88-1.664 9.345-11.613 14.438-17.28 6.24-1.556-2.252-2.721-6.436-2.4-10.561 0.518-6.637 7.555-13.241 1.92-17.279-3.615 3.716-3.698 11.746-4.8 17.76-0.713 3.892-0.452 7.538-2.4 10.56-8.24-3.905-1.177-16.119-0.48-24.479 0.161-1.938-0.654-4.139-0.48-5.76 0.569-5.3 3.186-12.551 5.28-17.76 4.893-12.17 13.189-23.466 17.76-31.68 1.01 0.151 2.865 1.365 2.4-0.96 11.779 4.95 24.715 4.28 36.48 6.72z" fill="#E7A614"/>
</g>
<metadata><rdf:RDF><cc:Work><dc:format>image/svg+xml</dc:format><dc:type rdf:resource="http://purl.org/dc/dcmitype/StillImage"/><cc:license rdf:resource="http://creativecommons.org/licenses/publicdomain/"/><dc:publisher><cc:Agent rdf:about="http://openclipart.org/"><dc:title>Openclipart</dc:title></cc:Agent></dc:publisher></cc:Work><cc:License rdf:about="http://creativecommons.org/licenses/publicdomain/"><cc:permits rdf:resource="http://creativecommons.org/ns#Reproduction"/><cc:permits rdf:resource="http://creativecommons.org/ns#Distribution"/><cc:permits rdf:resource="http://creativecommons.org/ns#DerivativeWorks"/></cc:License></rdf:RDF></metadata></svg>
